<svg width="390" height="395" viewBox="0 0 390 395" fill="none" xmlns="http://www.w3.org/2000/svg">
<g clip-path="url(#clip0_3244_647)">
<path d="M195 -98C349.592 -98 474 11.9391 474 146.5C474 281.061 349.592 391 195 391C40.4082 391 -84 281.061 -84 146.5C-84 11.9391 40.4082 -98 195 -98Z" fill="#3B2C94" stroke="#FEEFC4" stroke-width="8"/>
<path opacity="0.1" d="M310 295.961C310 295.961 362.927 302.518 367.852 303.105C372.777 303.691 393.329 289.707 397.311 288.337C401.293 286.966 410.967 283 410.967 283L416.754 285.96C416.754 285.96 402.213 290.256 399.971 290.804C397.729 291.352 370.605 307.605 367.852 307.842C365.099 308.079 336.897 304.023 336.897 304.023L310 295.961Z" fill="black"/>
<path opacity="0.1" d="M18.0166 283C18.0166 283 81.5925 301.468 99.3575 302.672C117.123 303.877 171.726 309.899 171.726 309.899V312.006C171.726 312.006 106.283 308.761 96.9484 307.824C87.6139 306.887 18.053 294.527 18.016 294.986C17.9796 295.446 18.0166 283 18.0166 283Z" fill="black"/>
<path opacity="0.1" d="M171.726 309.899C171.726 309.899 196.064 317.417 196.612 317.218C197.159 317.02 252.862 307.695 256.718 308.001C260.574 308.306 281.003 312.007 281.003 312.007V315.81L256.718 312.007C256.718 312.007 197.615 320.651 195.935 320.651C194.254 320.651 170.038 311.922 170.038 311.922L171.726 309.899Z" fill="black"/>
<path opacity="0.1" d="M280.225 332.45C280.225 332.45 292.981 333.925 294.067 334.529C295.152 335.133 314.641 341.506 319.475 342.248C324.309 342.989 348.481 343.721 351.352 342.449C354.222 341.177 357.589 336.749 357.589 336.749L362.682 339.763C362.682 339.763 353.013 344.43 351.956 344.692C350.899 344.954 319.022 344.029 317.511 343.963C316 343.896 293.49 337.634 293.49 337.634L282.539 336.749L280.225 332.45Z" fill="black"/>
<path opacity="0.1" d="M271.923 322.373C271.923 322.373 282.935 335.369 282.688 337.452C282.44 339.534 222 323.769 222 323.769C222 323.769 252.892 330.417 256.353 329.428C259.813 328.44 256.745 321.274 258.402 321.026C260.06 320.779 271.923 322.373 271.923 322.373Z" fill="black"/>
</g>
<path d="M408.506 136.311L335.369 101.045L310.192 82.0567L307.23 83.4733L292.42 96.2272L273.464 111.816L239.401 94.2431L210.67 55.4155H208.596L204.154 51.1642L186.382 66.752L164.759 94.8105L149.357 103.029L125.365 86.591L121.81 90.2755L110.555 84.0401L-18.0046 139.673V189.59L408.506 246.237V136.311Z" fill="#F5F5F5"/>
<path d="M149.357 103.029L117.632 127.522L115.939 135.082L131.113 165.068C131.113 165.068 105.112 140.729 104.548 140.729C103.983 140.729 93.759 115.984 93.759 115.984C93.759 115.984 99.3841 105.922 99.3841 105.382C99.3841 104.842 99.008 92.4217 99.5724 92.6017C100.137 92.7817 108.978 101.782 108.978 101.782L106.909 94.9416L116.503 101.962L110.555 84.0402L121.81 90.2755C121.81 90.2755 124.592 96.3821 125.156 96.7421C125.721 97.1021 129.483 99.982 129.483 99.982L125.365 86.591L149.357 103.029Z" fill="#FEEFC4"/>
<path d="M70.9788 154.239C70.9788 154.578 71.4508 155.26 72.3066 156.204C71.5646 154.266 70.9788 153.387 70.9788 154.239Z" fill="#FEEFC4"/>
<path d="M335.369 101.045L310.192 82.0564L310.145 82.0784L309.769 84.9631L311.601 90.8623L322.766 104.446L325.765 110.155L310.435 102.183L311.268 107.763L327.431 129.287C327.431 129.287 309.435 112.706 308.935 112.546C308.435 112.386 312.601 125.461 312.601 125.461L318.267 132.476L273.464 111.815L239.401 94.2434L210.67 55.4152H208.596L204.227 51.2336C203.54 53.4901 202.626 56.5833 202.626 56.5833L204.005 60.5694L213.457 71.4112L207.126 67.5849H204.005L207.792 77.6293L216.623 87.8334L206.625 85.1228L206.292 86.7171L209.291 90.5434L218.622 104.446L229.62 114.938L225.121 113.662L226.62 116.373L215.956 114.938L220.788 121.156L230.286 135.505L218.956 125.301L207.125 119.561L190.795 107.444L182.797 104.446L202.792 123.866L183.296 119.083L172.965 113.184L179.464 123.707L180.297 128.331L184.963 134.071L172.965 127.374L178.797 140.448L253.457 181.791C259.011 184.867 262.815 190.408 263.726 196.752C263.726 196.752 268.779 206.923 247.94 208.988C227.101 211.052 147.254 180.248 147.254 180.248C147.254 180.248 149.518 189.869 134.937 193.462C121.774 196.707 80.2544 164.974 72.3049 156.205C74.6007 162.203 78.3937 178.376 70.977 185.031C61.1627 193.839 -18.0063 144.161 -18.0063 139.672C-18.0063 143.561 -18.0063 193.462 -18.0063 193.462L102.007 288.536L408.504 290.116V288.603V246.236V238.876V156.302V136.311L335.369 101.045Z" fill="#FEEFC4"/>
<path d="M343.404 61.4392C342.698 59.554 341.978 57.6426 340.79 56.0167C339.602 54.3915 337.867 53.06 335.869 52.815C333.87 52.5707 331.656 53.6488 331.005 55.5537C330.719 51.2607 330.11 46.8568 327.961 43.1294C325.812 39.4021 321.803 36.4739 317.509 36.7367C313.46 36.9847 309.993 39.9921 308.066 43.5621C306.14 47.1322 305.479 51.2273 304.846 55.2342C303.311 53.3508 300.07 53.9427 298.468 55.7694C296.866 57.5961 296.46 60.1494 296.12 62.5555H344.41L343.404 61.4392Z" fill="#FEEFC4"/>
<path d="M175.341 55.3463C174.406 52.8491 173.452 50.3173 171.879 48.1639C170.306 46.0106 168.006 44.247 165.36 43.9234C162.713 43.5991 159.78 45.0278 158.917 47.5512C158.538 41.8648 157.732 36.0311 154.885 31.0939C152.039 26.1566 146.729 22.2784 141.04 22.6259C135.676 22.9537 131.085 26.938 128.533 31.6666C125.981 36.3953 125.105 41.8201 124.268 47.1275C122.235 44.6326 117.942 45.4163 115.82 47.8361C113.698 50.2559 113.161 53.6382 112.709 56.8244H176.674L175.341 55.3463Z" fill="#EBEBEB"/>
<path d="M61.9722 91.0944C61.1467 88.8904 60.3046 86.6548 58.9153 84.7547C57.5266 82.8541 55.4972 81.2974 53.1609 81.0113C50.8246 80.7252 48.2356 81.9863 47.4745 84.2136C47.1389 79.1941 46.4279 74.0446 43.9158 69.6867C41.403 65.3287 36.7149 61.9047 31.6942 62.2116C26.9596 62.5013 22.9068 66.0183 20.6539 70.1927C18.4016 74.3671 17.6286 79.1553 16.889 83.8405C15.0944 81.6383 11.305 82.3302 9.43181 84.4663C7.55858 86.6023 7.08416 89.5877 6.68604 92.4008H63.1499L61.9722 91.0944Z" fill="#F5F5F5"/>
<path d="M398.49 84.4383C397.652 82.2009 396.797 79.9313 395.387 78.0021C393.978 76.0728 391.917 74.4922 389.545 74.202C387.173 73.9117 384.545 75.1919 383.772 77.4532C383.432 72.358 382.71 67.1298 380.159 62.7057C377.608 58.2816 372.849 54.8058 367.752 55.1175C362.946 55.4113 358.831 58.9813 356.545 63.2195C354.258 67.4571 353.473 72.318 352.723 77.0747C350.901 74.8391 347.054 75.5412 345.153 77.71C343.251 79.8783 342.769 82.9095 342.365 85.765H399.686L398.49 84.4383Z" fill="#EBEBEB"/>
<path d="M386.063 40.2461C385.604 39.0207 385.136 37.7787 384.364 36.722C383.592 35.6652 382.464 34.8005 381.165 34.6413C379.866 34.4822 378.428 35.1831 378.004 36.4216C377.818 33.6317 377.423 30.7691 376.026 28.3464C374.63 25.9236 372.024 24.0212 369.233 24.1917C366.601 24.3526 364.348 26.3075 363.096 28.6277C361.844 30.9479 361.414 33.6096 361.004 36.2142C360.006 34.99 357.9 35.3744 356.858 36.5616C355.817 37.7489 355.553 39.4087 355.332 40.972H386.717L386.063 40.2461Z" fill="#F5F5F5"/>
<path d="M42.3643 44.0295C42.0115 43.0866 41.6509 42.1312 41.0573 41.3183C40.4637 40.5053 39.5959 39.8396 38.5964 39.7174C37.5975 39.5952 36.4901 40.1346 36.1647 41.087C36.0211 38.9408 35.7171 36.7386 34.6431 34.8749C33.5686 33.0112 31.5642 31.5475 29.4168 31.6786C27.3922 31.8025 25.659 33.3063 24.6959 35.0913C23.7328 36.8763 23.402 38.9242 23.0861 40.9273C22.3185 39.9856 20.6979 40.2812 19.8975 41.1949C19.0965 42.1086 18.8938 43.3852 18.7234 44.5879H42.8685L42.3643 44.0295Z" fill="#EBEBEB"/>
<path d="M89.767 74.4743C89.4142 73.5314 89.0536 72.5761 88.46 71.7631C87.8664 70.9502 86.9986 70.2844 85.9991 70.1623C85.0002 70.0401 83.8928 70.5794 83.5674 71.5319C83.4238 69.3857 83.1198 67.1834 82.0452 65.3198C80.9707 63.4561 78.9663 61.9923 76.8189 62.1234C74.7943 62.2474 73.0611 63.7511 72.098 65.5361C71.1349 67.3211 70.8041 69.369 70.4882 71.3721C69.7212 70.4305 68.1 70.7261 67.2996 71.6397C66.4986 72.5534 66.2953 73.83 66.1255 75.0328H90.2706L89.767 74.4743Z" fill="#EBEBEB"/>
<path d="M206.115 113.735C206.084 113.815 202.737 112.557 198.641 110.926C194.544 109.296 191.249 107.909 191.281 107.83C191.313 107.75 194.659 109.007 198.756 110.638C202.852 112.269 206.147 113.655 206.115 113.735Z" fill="#263238"/>
<path d="M217.981 114.359C217.95 114.439 213.36 112.74 207.732 110.564C202.101 108.387 197.564 106.559 197.594 106.479C197.625 106.399 202.213 108.098 207.843 110.274C213.473 112.45 218.011 114.279 217.981 114.359Z" fill="#263238"/>
<path d="M357.084 164.413C357.06 164.495 353.613 163.546 349.386 162.294C345.158 161.041 341.751 159.96 341.775 159.878C341.799 159.795 345.246 160.744 349.474 161.996C353.702 163.249 357.109 164.33 357.084 164.413Z" fill="#263238"/>
<path d="M371.025 165.505C370.998 165.587 365.809 163.963 359.435 161.88C353.059 159.796 347.914 158.041 347.941 157.96C347.967 157.878 353.156 159.501 359.532 161.585C365.905 163.668 371.051 165.423 371.025 165.505Z" fill="#263238"/>
<path d="M191.378 236.823L197.158 245.268L234.836 248.291C238.145 246.798 239.629 242.245 237.835 239.088C236.041 235.931 231.371 234.876 228.394 236.954C227.754 233.69 223.478 231.77 220.614 233.46C220.025 228.583 215.318 224.569 210.409 224.756C205.5 224.943 201.113 229.305 200.897 234.212C197.946 231.707 192.638 233.163 191.378 236.823Z" fill="#BAB1F0"/>
<path d="M56.8211 210.483C63.6447 209.805 70.6227 209.086 76.8252 206.161C83.0272 203.235 88.4103 197.625 89.1291 190.805C89.8478 183.986 84.4368 176.571 77.5828 176.796C77.7461 172.879 75.7191 168.943 72.4363 166.801C69.1535 164.66 64.7342 164.39 61.2154 166.118C63.2948 162.627 59.8148 157.91 55.7876 157.373C51.7605 156.837 47.9115 159.109 44.7223 161.626C45.599 156.056 39.6193 150.61 34.1558 152C33.8077 139.547 25.0984 127.751 13.3 123.751C1.50156 119.751 -12.5855 123.82 -20.4348 133.494L-19.9938 192.351L56.8211 210.483Z" fill="#BAB1F0"/>
<path d="M391.459 290.698C394.452 289.021 396.01 285.145 395.009 281.864C394.009 278.583 390.554 276.236 387.135 276.514C386.3 272.479 383.335 268.947 379.504 267.427C375.674 265.908 371.094 266.445 367.719 268.81C367.861 264.672 365.837 260.519 362.489 258.081C359.141 255.643 354.567 254.991 350.672 256.397C348.994 248.543 342.021 242.112 334.057 241.073C326.094 240.034 315.417 246.955 311.781 254.115C311.781 254.115 309.358 252.857 307.101 251.942C304.844 251.028 292.167 249.476 288.415 258.72L301.206 287.918L391.459 290.698Z" fill="#BAB1F0"/>
<path d="M346.734 287.441L288.807 256.698L249.803 254.437L232.845 243.132H204.969L148.619 214.303L111.311 217.695L100.57 205.824L78.6268 184.908L20.0198 172.27L8.99615 161.732H-20.398C-20.398 161.732 -20.4814 286.401 -20.398 289.577L411.435 291.797V279.134L346.734 287.441Z" fill="#624AF6"/>
<path opacity="0.4" d="M346.734 287.441L288.807 256.698L249.803 254.437L232.845 243.132H204.969L148.619 214.303L111.311 217.695L100.57 205.824L78.6268 184.908L20.0198 172.27L8.99615 161.732H-20.398C-20.398 161.732 -20.4814 286.401 -20.398 289.577L411.435 291.797V279.134L346.734 287.441Z" fill="black"/>
<path opacity="0.1" d="M80.9346 244.291C80.9346 244.291 133.862 250.849 138.786 251.435C143.711 252.022 164.264 238.038 168.246 236.667C172.227 235.296 181.902 231.33 181.902 231.33L187.688 234.291C187.688 234.291 173.148 238.586 170.906 239.134C168.663 239.683 141.539 255.935 138.786 256.172C136.034 256.409 107.831 252.353 107.831 252.353L80.9346 244.291Z" fill="black"/>
<path opacity="0.1" d="M240.127 267.622C240.127 267.622 252.883 269.097 253.968 269.701C255.054 270.306 274.542 276.679 279.376 277.42C284.21 278.162 308.383 278.893 311.253 277.621C314.124 276.349 317.49 271.921 317.49 271.921L322.584 274.935C322.584 274.935 312.915 279.603 311.858 279.864C310.8 280.126 278.923 279.202 277.412 279.135C275.902 279.068 253.391 272.806 253.391 272.806L242.441 271.921L240.127 267.622Z" fill="black"/>
<path opacity="0.1" d="M-20.4348 197.837C-20.4348 197.837 -2.18827 208.803 15.7871 205.298C33.7624 201.794 60.9162 189.06 66.2707 189.498C71.6251 189.937 83.4426 189.498 83.4426 189.498L90.271 196.007C90.271 196.007 70.0952 190.224 65.1234 192.184C60.1515 194.144 26.496 213.151 14.2578 213.018C2.01949 212.884 -20.4342 211.098 -20.4342 211.098V197.837H-20.4348Z" fill="black"/>
<path d="M411.435 279.134C411.435 279.134 411.055 279.193 410.311 279.294C409.562 279.393 408.454 279.541 407 279.734C404.082 280.115 399.777 280.677 394.213 281.404C383.077 282.845 366.905 284.937 346.748 287.546L346.715 287.55L346.684 287.534C330.37 278.886 310.673 268.445 288.743 256.821L288.8 256.837C276.499 256.127 263.407 255.371 249.796 254.586L249.755 254.583L249.721 254.561C244.368 250.993 238.612 247.157 232.761 243.258L232.846 243.284C223.961 243.284 214.545 243.285 204.97 243.286H204.932L204.899 243.269C200.157 240.844 195.089 238.251 189.978 235.636C175.783 228.373 161.92 221.279 148.551 214.438L148.633 214.455C135.755 215.623 123.29 216.753 111.324 217.839L111.252 217.846L111.204 217.792C107.539 213.739 103.966 209.788 100.467 205.919L100.474 205.926C92.8104 198.616 85.4849 191.628 78.5385 185.003L78.6005 185.035C55.6688 180.075 35.8095 175.778 20.0012 172.358L19.9762 172.353L19.9577 172.335C15.8769 168.426 12.221 164.924 8.9454 161.786L8.99666 161.806C-0.542915 161.791 -7.8904 161.779 -12.8569 161.771C-15.3356 161.763 -17.2196 161.756 -18.4885 161.752C-19.7532 161.745 -20.3975 161.732 -20.3975 161.732C-20.3975 161.732 -19.7532 161.719 -18.4885 161.713C-17.2202 161.708 -15.3362 161.702 -12.8569 161.694C-7.8904 161.686 -0.542915 161.674 8.99666 161.658H9.02646L9.04792 161.679C12.3301 164.81 15.9931 168.304 20.0823 172.205L20.0388 172.181C35.8512 175.581 55.7165 179.851 78.6542 184.783L78.6899 184.79L78.7161 184.815C85.6673 191.436 92.9981 198.418 100.667 205.723L100.671 205.726L100.675 205.73C104.176 209.598 107.751 213.547 111.418 217.598L111.298 217.551C123.263 216.461 135.727 215.325 148.605 214.152L148.649 214.148L148.688 214.168C162.058 221.007 175.923 228.099 190.119 235.36C195.229 237.976 200.298 240.568 205.039 242.995L204.969 242.978C214.544 242.978 223.96 242.98 232.845 242.98H232.891L232.929 243.006C238.779 246.907 244.534 250.745 249.886 254.314L249.812 254.289C263.422 255.082 276.514 255.844 288.815 256.561L288.845 256.563L288.872 256.577C310.79 268.223 330.477 278.683 346.783 287.347L346.719 287.336C366.882 284.768 383.058 282.708 394.197 281.289C399.764 280.587 404.071 280.044 406.991 279.675C408.447 279.495 409.556 279.358 410.305 279.265C411.053 279.173 411.435 279.134 411.435 279.134Z" fill="#263238"/>
<path d="M190.116 221.948L195.359 219.026L197.157 222.622L191.914 223.225L190.116 221.948Z" fill="#AE7461"/>
<path d="M193.637 227.141L194.307 229.14C194.307 229.14 197.4 228.792 197.158 228.531C196.915 228.27 195.404 227.227 195.404 227.227L193.637 227.141Z" fill="#AE7461"/>
<path d="M187.259 225.863L187.93 227.862C187.93 227.862 189.572 227.402 189.33 227.141C189.087 226.88 189.026 225.949 189.026 225.949L187.259 225.863Z" fill="#6F4439"/>
<path d="M356.4 276.583L359.022 275.123L360.546 277.178L358.198 277.861L356.4 276.583Z" fill="#AE7461"/>
<path d="M352.866 280.065L353.537 282.064C353.537 282.064 356.629 281.717 356.387 281.456C356.144 281.195 354.633 280.152 354.633 280.152L352.866 280.065Z" fill="#AE7461"/>
<path d="M351.74 275.481L352.167 276.756C352.167 276.756 354.138 276.534 353.983 276.368C353.829 276.201 352.866 275.537 352.866 275.537L351.74 275.481Z" fill="#6F4439"/>
<path opacity="0.1" d="M231.824 257.545C231.824 257.545 242.837 270.542 242.589 272.624C242.342 274.706 181.902 258.942 181.902 258.942C181.902 258.942 212.794 265.589 216.254 264.601C219.714 263.612 216.647 256.446 218.304 256.198C219.962 255.951 231.824 257.545 231.824 257.545Z" fill="black"/>
<path opacity="0.1" d="M-20.3979 247.813C-20.3979 247.813 43.178 266.28 60.9429 267.485C78.7085 268.689 133.312 274.711 133.312 274.711V276.819C133.312 276.819 67.8685 273.574 58.5339 272.637C49.1993 271.7 -20.3616 259.339 -20.3985 259.798C-20.4349 260.258 -20.3979 247.813 -20.3979 247.813Z" fill="black"/>
<path opacity="0.1" d="M133.312 274.711C133.312 274.711 157.65 282.229 158.197 282.031C158.744 281.832 214.448 272.508 218.304 272.814C222.16 273.119 242.588 276.819 242.588 276.819V280.622L218.304 276.819C218.304 276.819 159.2 285.463 157.52 285.463C155.84 285.463 131.624 276.735 131.624 276.735L133.312 274.711Z" fill="black"/>
<path d="M145.561 287.441C145.561 287.441 145.466 287.331 145.294 287.107C145.116 286.874 144.864 286.542 144.534 286.109C143.866 285.22 142.892 283.923 141.639 282.255C140.384 280.577 138.852 278.526 137.074 276.146C136.179 274.96 135.248 273.667 134.214 272.342C133.151 271.036 132.002 269.674 130.774 268.264C128.311 265.452 125.549 262.415 122.305 259.452C121.486 258.721 120.638 257.997 119.739 257.307C119.292 256.962 118.813 256.652 118.347 256.319C117.875 256.025 117.326 255.812 116.794 255.583C114.623 254.718 112.329 253.966 109.981 253.194C100.564 250.163 90.1158 247.12 79.15 243.936C57.2005 237.595 37.2864 232.008 22.8966 227.879C15.7005 225.818 9.88351 224.129 5.8766 222.916C3.87345 222.31 2.32206 221.823 1.27787 221.469C0.23129 221.127 -0.29915 220.873 -0.277694 220.838C-0.277694 220.838 -0.242531 220.853 -0.182335 220.888C-0.123331 220.924 -0.0184339 220.955 0.110302 221.01C0.374926 221.108 0.771861 221.244 1.29694 221.41C2.34649 221.744 3.90205 222.212 5.91057 222.801C9.92702 223.977 15.7529 225.635 22.9562 227.668C37.3609 231.743 57.284 237.296 79.2359 243.638C90.2034 246.823 100.648 249.875 110.068 252.923C112.419 253.699 114.712 254.456 116.896 255.331C117.438 255.567 117.981 255.775 118.491 256.093C118.963 256.431 119.448 256.747 119.899 257.097C120.803 257.794 121.656 258.526 122.476 259.262C125.726 262.247 128.482 265.296 130.938 268.121C132.162 269.537 133.307 270.905 134.367 272.218C135.4 273.556 136.321 274.849 137.211 276.042C138.973 278.434 140.492 280.495 141.735 282.184C142.968 283.867 143.926 285.176 144.584 286.073C144.903 286.514 145.147 286.852 145.319 287.089C145.482 287.318 145.561 287.441 145.561 287.441Z" fill="#263238"/>
<path d="M218.304 256.198C218.305 256.19 218.394 256.191 218.563 256.199C218.76 256.213 219.006 256.23 219.31 256.251C219.995 256.309 220.937 256.388 222.108 256.487C224.535 256.715 227.906 257.031 231.839 257.4L231.894 257.405L231.932 257.446C233.456 259.092 235.079 260.937 236.713 262.918C238.538 265.147 240.223 267.327 241.504 269.487C241.825 270.026 242.108 270.572 242.341 271.125C242.573 271.669 242.744 272.269 242.719 272.84C242.712 273.946 242.706 274.979 242.701 275.925C242.681 277.784 242.665 279.302 242.654 280.392C242.642 280.894 242.632 281.298 242.625 281.606C242.615 281.884 242.605 282.03 242.594 282.03C242.583 282.03 242.573 281.884 242.563 281.607C242.555 281.298 242.545 280.895 242.533 280.392C242.52 279.302 242.503 277.785 242.482 275.925C242.475 274.978 242.468 273.946 242.461 272.839C242.479 272.294 242.319 271.769 242.089 271.23C241.859 270.697 241.577 270.162 241.257 269.632C239.978 267.506 238.292 265.337 236.473 263.114C234.844 261.14 233.227 259.293 231.718 257.644L231.81 257.689C227.881 257.275 224.515 256.921 222.09 256.665C220.922 256.531 219.983 256.424 219.3 256.345C218.999 256.306 218.754 256.273 218.559 256.248C218.39 256.223 218.303 256.207 218.304 256.198Z" fill="#263238"/>
<path d="M223.918 257.851C223.705 257.32 223.028 257.176 222.457 257.155C219.55 257.045 216.616 258.172 214.531 260.201C215.047 255.962 215.08 251.665 214.63 247.419C210.332 249.571 207.346 254.134 207.095 258.935C206.045 255.074 204.771 251.274 203.28 247.56C200.717 250.731 200.273 255.46 202.2 259.053C199.341 255.048 195.208 251.968 190.553 250.371C191.343 254.414 194.442 259.273 197.508 262.024C197.718 262.234 209.703 264.329 219.049 265.502C221.098 263.64 222.957 261.225 223.789 258.996C223.926 258.628 224.065 258.216 223.918 257.851Z" fill="#BAB1F0"/>
<path d="M46.3617 168.74C46.4053 168.73 46.5513 169.254 46.7831 170.099C47.0144 170.944 47.3398 172.108 47.7373 173.382C48.136 174.657 48.5318 175.799 48.8226 176.625C49.1129 177.452 49.2917 177.965 49.25 177.982C49.2124 177.998 48.9621 177.514 48.6176 176.704C48.2731 175.895 47.8416 174.757 47.4405 173.475C47.0406 172.193 46.7474 171.012 46.5692 170.15C46.3915 169.288 46.3218 168.748 46.3617 168.74Z" fill="#263238"/>
<path d="M51.8812 168.634C51.9659 168.648 51.6714 170.777 51.2238 173.387C50.7762 175.998 50.3447 178.103 50.2601 178.088C50.1755 178.074 50.4699 175.946 50.9175 173.335C51.3657 170.724 51.7966 168.619 51.8812 168.634Z" fill="#263238"/>
<path d="M55.3595 173.453C55.4262 173.506 54.6532 174.587 53.6322 175.867C52.6113 177.147 51.7292 178.141 51.6625 178.088C51.5957 178.034 52.3687 176.954 53.3897 175.673C54.4106 174.394 55.2921 173.4 55.3595 173.453Z" fill="#263238"/>
<path d="M207.377 235.814C207.446 235.763 208.702 237.361 210.183 239.381C211.664 241.402 212.808 243.081 212.739 243.132C212.669 243.183 211.413 241.586 209.933 239.565C208.452 237.544 207.308 235.865 207.377 235.814Z" fill="#263238"/>
<path d="M212.554 233.898C212.595 233.891 212.724 234.401 212.869 235.239C213.014 236.076 213.165 237.24 213.301 238.526C213.427 239.748 213.542 240.855 213.642 241.816C213.73 242.658 213.782 243.18 213.738 243.188C213.698 243.195 213.569 242.684 213.425 241.847C213.279 241.009 213.128 239.845 212.993 238.559C212.866 237.337 212.751 236.23 212.652 235.269C212.563 234.428 212.51 233.905 212.554 233.898Z" fill="#263238"/>
<path d="M217.424 237.303C217.503 237.338 216.986 238.656 216.306 240.259C215.617 241.861 215.067 243.157 214.991 243.132C214.904 243.102 215.33 241.743 216.02 240.138C216.702 238.531 217.347 237.269 217.424 237.303Z" fill="#263238"/>
<path d="M309.91 258.433C309.954 258.436 309.958 258.979 309.961 259.855C309.964 260.732 309.973 261.94 310.024 263.274C310.076 264.609 310.16 265.814 310.225 266.688C310.289 267.562 310.327 268.103 310.283 268.109C310.243 268.115 310.128 267.583 310.007 266.711C309.886 265.839 309.766 264.628 309.714 263.286C309.663 261.944 309.688 260.727 309.741 259.849C309.795 258.971 309.869 258.431 309.91 258.433Z" fill="#263238"/>
<path d="M315.265 259.773C315.343 259.808 314.503 261.786 313.389 264.189C312.275 266.593 311.309 268.511 311.231 268.475C311.154 268.439 311.993 266.462 313.107 264.058C314.222 261.656 315.188 259.737 315.265 259.773Z" fill="#263238"/>
<path d="M317.364 265.333C317.411 265.4 316.315 266.304 314.94 267.4C313.564 268.496 312.376 269.295 312.323 269.223C312.276 269.156 313.372 268.252 314.747 267.156C316.123 266.06 317.312 265.26 317.364 265.333Z" fill="#263238"/>
<path d="M249.727 68.574C261.268 68.574 270.624 59.2179 270.624 47.6765C270.624 36.1351 261.268 26.7789 249.727 26.7789C238.185 26.7789 228.829 36.1351 228.829 47.6765C228.829 59.2179 238.185 68.574 249.727 68.574Z" fill="#624AF6"/>
<g opacity="0.9">
<path d="M249.727 68.574C261.268 68.574 270.624 59.2179 270.624 47.6765C270.624 36.1351 261.268 26.7789 249.727 26.7789C238.185 26.7789 228.829 36.1351 228.829 47.6765C228.829 59.2179 238.185 68.574 249.727 68.574Z" fill="white"/>
</g>
<path d="M266.925 54.8937C270.903 45.4003 266.431 34.4801 256.937 30.5028C247.444 26.5255 236.524 30.9972 232.547 40.4907C228.569 49.9841 233.041 60.9043 242.534 64.8816C252.028 68.8589 262.948 64.3872 266.925 54.8937Z" fill="#624AF6"/>
<g opacity="0.6">
<path d="M266.925 54.8937C270.903 45.4003 266.431 34.4801 256.937 30.5028C247.444 26.5255 236.524 30.9972 232.547 40.4907C228.569 49.9841 233.041 60.9043 242.534 64.8816C252.028 68.8589 262.948 64.3872 266.925 54.8937Z" fill="white"/>
</g>
<path d="M249.727 63.185C258.292 63.185 265.236 56.2416 265.236 47.6765C265.236 39.1114 258.292 32.168 249.727 32.168C241.162 32.168 234.219 39.1114 234.219 47.6765C234.219 56.2416 241.162 63.185 249.727 63.185Z" fill="#624AF6"/>
<g opacity="0.3">
<path d="M249.727 63.185C258.292 63.185 265.236 56.2416 265.236 47.6765C265.236 39.1114 258.292 32.168 249.727 32.168C241.162 32.168 234.219 39.1114 234.219 47.6765C234.219 56.2416 241.162 63.185 249.727 63.185Z" fill="white"/>
</g>
<path d="M250.743 60.0497C257.578 59.486 262.661 53.4886 262.098 46.6542C261.534 39.8197 255.536 34.7363 248.702 35.3C241.868 35.8637 236.784 41.8611 237.348 48.6955C237.912 55.53 243.909 60.6134 250.743 60.0497Z" fill="#624AF6"/>
<path d="M281.258 82.7993C280.609 80.0386 283.318 78.0456 284.918 77.8984C286.518 77.7512 288.077 78.5254 289.309 79.557C290.541 80.5887 291.527 81.8773 292.654 83.0228C293.78 84.1683 295.116 85.2035 296.691 85.5188C297.935 85.768 299.229 85.548 300.486 85.7197C303.337 86.1095 305.637 88.5805 306.326 91.3745C306.742 93.0576 306.746 95.025 308.034 96.1854C309.886 97.8548 313.027 96.6593 315.181 97.915C316.753 98.8317 317.372 100.949 316.856 102.694C316.34 104.439 314.883 105.793 313.227 106.547C311.571 107.301 309.724 107.524 307.906 107.605C304.186 107.772 300.109 107.232 297.499 104.575C294.794 101.821 294.408 97.6194 292.997 94.0261C290.897 88.6746 286.159 84.4323 280.608 82.9328L281.258 82.7993Z" fill="#263238"/>
<path d="M280.899 81.4971C281.069 81.3665 281.305 81.3773 281.518 81.3969C283.06 81.5406 284.587 81.8296 286.074 82.2587C286.241 82.307 286.425 82.3714 286.5 82.5269C286.576 82.6825 286.506 82.8774 286.384 82.999C286.26 83.1206 286.094 83.1849 285.932 83.2469L280.863 82.5585C280.716 82.2057 280.596 81.7301 280.899 81.4971Z" fill="#BAB1F0"/>
<path d="M290.318 85.3913C286.308 82.751 281.772 81.9274 277.167 83.2833C274.568 84.0485 273.667 84.9199 271.962 86.004C270.258 87.0875 268.89 88.6115 268.272 90.5348C267.537 92.8193 267.084 95.2623 267.546 97.6165C268.021 100.035 269.743 102.753 270.653 105.044C271.562 107.335 274.241 109.668 276.218 111.14L279.964 109.86C283.296 108.942 289.219 110.72 292.195 108.964C295.172 107.209 295.8 102.163 296.046 98.4396C296.362 93.6483 294.328 88.0316 290.318 85.3913Z" fill="#263238"/>
<path d="M274.044 87.2265L276.048 86.3354L284.994 87.0119C286.161 86.7109 287.365 87.3534 287.764 88.4912L295.068 113.074L284.482 121.911L282.341 115.557C282.341 115.557 276.855 116.702 273.561 110.884C271.923 107.991 270.192 102.889 268.911 98.6697C267.758 94.872 269.372 88.7051 274.044 87.2265Z" fill="#AE7461"/>
<path d="M282.462 106.5C282.316 106.185 282.042 105.951 281.747 105.824C281.155 105.571 280.462 105.744 280.071 106.245C279.68 106.745 279.614 107.54 279.913 108.167C280.314 108.465 280.824 108.591 281.31 108.484C281.386 108.467 281.461 108.447 281.535 108.422C281.892 108.3 282.219 108.064 282.411 107.713C282.603 107.362 282.643 106.889 282.462 106.5Z" fill="#6F4439"/>
<path d="M272.64 103.303C272.782 103.728 273.258 103.958 273.704 103.818C274.149 103.678 274.396 103.222 274.255 102.797C274.113 102.373 273.636 102.142 273.192 102.282C272.745 102.421 272.499 102.879 272.64 103.303Z" fill="#263238"/>
<path d="M270.995 100.328C271.132 100.395 271.566 99.7257 272.421 99.4086C273.27 99.0802 274.061 99.2853 274.114 99.1458C274.142 99.0826 273.972 98.9336 273.626 98.8365C273.283 98.7393 272.754 98.7179 272.223 98.9187C271.692 99.1207 271.318 99.4837 271.136 99.7799C270.948 100.08 270.929 100.3 270.995 100.328Z" fill="#263238"/>
<path d="M278.704 105.395C278.69 105.345 278.125 105.452 277.224 105.664C276.998 105.723 276.776 105.757 276.683 105.621C276.573 105.483 276.576 105.214 276.587 104.921C276.595 104.317 276.603 103.684 276.612 103.02C276.624 100.323 276.545 98.1373 276.437 98.1379C276.328 98.1385 276.23 100.325 276.218 103.023C276.221 103.687 276.222 104.319 276.225 104.923C276.235 105.202 276.198 105.536 276.432 105.821C276.551 105.962 276.755 106.02 276.909 106.006C277.065 105.996 277.188 105.953 277.298 105.919C278.181 105.642 278.719 105.445 278.704 105.395Z" fill="#263238"/>
<path d="M282.329 115.554C282.329 115.554 286.59 114.267 289.787 110.248C289.787 110.248 289.182 115.36 282.775 117.095L282.329 115.554Z" fill="#6F4439"/>
<path d="M281.437 105.047C281.295 105.091 281.639 106.018 281.092 106.972C280.547 107.928 279.521 108.193 279.562 108.325C279.571 108.389 279.85 108.423 280.27 108.279C280.685 108.14 281.233 107.785 281.567 107.202C281.9 106.618 281.908 106.002 281.797 105.61C281.687 105.209 281.498 105.018 281.437 105.047Z" fill="#263238"/>
<path d="M270.34 97.1946C270.561 97.3495 271.163 96.9657 271.95 96.744C272.73 96.4966 273.446 96.4865 273.543 96.2362C273.584 96.1164 273.424 95.9447 273.081 95.8339C272.743 95.7224 272.22 95.698 271.681 95.8589C271.142 96.0204 270.721 96.328 270.501 96.6063C270.276 96.8864 270.24 97.1171 270.34 97.1946Z" fill="#263238"/>
<path d="M281.713 100.037C281.869 100.456 281.642 100.934 281.207 101.105C280.773 101.275 280.294 101.074 280.139 100.655C279.983 100.236 280.21 99.7573 280.643 99.5874C281.079 99.4164 281.558 99.6178 281.713 100.037Z" fill="#263238"/>
<path d="M282.643 96.3196C282.578 96.4573 281.82 96.2088 280.956 96.4978C280.089 96.7744 279.601 97.43 279.472 97.3549C279.411 97.3233 279.45 97.1004 279.659 96.8078C279.864 96.5169 280.264 96.1682 280.803 95.9918C281.343 95.816 281.862 95.8643 282.19 95.9805C282.523 96.0967 282.676 96.2565 282.643 96.3196Z" fill="#263238"/>
<path d="M281.251 93.7002C281.146 93.9529 280.411 93.9707 279.606 94.227C278.792 94.4583 278.168 94.8504 277.943 94.6967C277.841 94.6198 277.883 94.3873 278.118 94.1031C278.35 93.8211 278.788 93.507 279.345 93.339C279.902 93.1715 280.438 93.1912 280.784 93.2996C281.135 93.4081 281.294 93.5792 281.251 93.7002Z" fill="#263238"/>
<path d="M289.989 99.4039C289.818 98.9432 289.944 97.6577 290.373 97.4169C291.516 96.7738 293.742 96.0526 294.916 99.1298C296.52 103.336 291.966 104.08 291.912 103.962C291.87 103.87 290.579 100.996 289.989 99.4039Z" fill="#AE7461"/>
<path d="M292.487 101.983C292.5 101.963 292.58 102.006 292.725 102.016C292.867 102.025 293.089 101.983 293.277 101.818C293.66 101.485 293.765 100.637 293.496 99.8712C293.361 99.4838 293.142 99.15 292.891 98.8997C292.645 98.641 292.364 98.5022 292.125 98.5475C291.883 98.5808 291.776 98.7751 291.77 98.9128C291.758 99.0523 291.817 99.1262 291.798 99.1417C291.79 99.1566 291.681 99.1059 291.648 98.9194C291.634 98.8288 291.645 98.7108 291.713 98.5922C291.783 98.4718 291.915 98.3734 292.078 98.3305C292.411 98.2292 292.816 98.4163 293.092 98.6911C293.385 98.9605 293.641 99.3324 293.792 99.7669C294.089 100.625 293.958 101.583 293.416 101.991C293.15 102.181 292.869 102.186 292.704 102.135C292.533 102.082 292.475 101.996 292.487 101.983Z" fill="#6F4439"/>
<path d="M290.551 97.3745L289.815 98.8454C283.701 95.8112 270.98 87.407 271.703 87.9183C271.703 87.9183 274.513 85.585 278.199 85.0879C281.884 84.5903 289.068 84.2678 290.256 88.4267C291.444 92.5862 290.551 97.3745 290.551 97.3745Z" fill="#263238"/>
<path d="M295.839 102.241C295.828 102.24 295.832 102.136 295.848 101.942C295.871 101.712 295.899 101.431 295.933 101.091C296.011 100.354 296.101 99.2834 296.133 97.9615C296.142 96.6414 296.081 95.059 295.711 93.3568C295.504 92.5129 295.242 91.6374 294.849 90.7779C294.451 89.9221 293.941 89.0835 293.321 88.2962C292.076 86.7221 290.598 85.4586 289.074 84.6195C287.559 83.76 286.051 83.2648 284.761 83.0049C283.469 82.7373 282.394 82.695 281.656 82.7021C280.916 82.7057 280.507 82.7504 280.504 82.72C280.503 82.7093 280.603 82.6902 280.798 82.6634C280.993 82.6384 281.28 82.5937 281.652 82.5817C282.396 82.5376 283.486 82.546 284.803 82.7897C286.118 83.0263 287.661 83.5079 289.214 84.3703C290.777 85.2125 292.296 86.4998 293.565 88.1049C294.199 88.9101 294.721 89.7731 295.126 90.6522C295.524 91.5354 295.787 92.433 295.99 93.2954C296.352 95.034 296.389 96.636 296.352 97.9675C296.291 99.3001 296.167 100.372 296.052 101.107C295.995 101.444 295.947 101.723 295.909 101.951C295.874 102.142 295.849 102.243 295.839 102.241Z" fill="#BAB1F0"/>
<path d="M313.26 95.9542C313.26 95.9542 313.164 96.0782 312.914 96.2301C312.668 96.3833 312.259 96.5621 311.699 96.6002C311.146 96.636 310.442 96.5353 309.741 96.1491C309.041 95.7635 308.399 95.081 307.912 94.2162C307.416 93.3515 307.091 92.3049 306.808 91.1898C306.516 90.0782 306.256 88.8695 305.672 87.7383C305.107 86.6131 304.14 85.5623 302.79 85.2429C301.458 84.8823 299.986 85.0653 298.48 84.9586C297.726 84.9127 296.97 84.753 296.285 84.4389C295.605 84.1158 295.027 83.651 294.507 83.1676C293.985 82.6831 293.514 82.1747 293.032 81.7056C292.55 81.2384 292.054 80.8045 291.548 80.4093C290.538 79.6172 289.493 78.9736 288.473 78.4604C287.454 77.9472 286.453 77.5575 285.496 77.4532C284.544 77.3417 283.656 77.5265 283 77.9049C282.334 78.2774 281.94 78.8442 281.755 79.3437C281.565 79.8479 281.575 80.2806 281.614 80.5589C281.658 80.8402 281.719 80.9809 281.704 80.9862C281.704 80.9862 281.618 80.8557 281.553 80.5702C281.492 80.2877 281.461 79.8372 281.641 79.3037C281.815 78.7781 282.218 78.163 282.912 77.7559C283.596 77.3429 284.524 77.1337 285.519 77.2356C286.518 77.331 287.551 77.722 288.587 78.2309C289.628 78.7417 290.693 79.3866 291.724 80.1846C292.241 80.5827 292.747 81.0208 293.239 81.494C293.73 81.9679 294.202 82.4727 294.714 82.9459C295.225 83.4173 295.781 83.8596 296.418 84.1611C297.058 84.4526 297.769 84.6058 298.504 84.6505C299.969 84.7577 301.458 84.5688 302.871 84.9508C303.57 85.135 304.225 85.4878 304.731 85.9718C305.243 86.451 305.628 87.0231 305.928 87.609C306.527 88.7909 306.778 90.0186 307.059 91.1278C307.33 92.2423 307.637 93.2656 308.106 94.1114C308.565 94.9559 309.172 95.6192 309.829 96.0001C310.488 96.3821 311.161 96.4977 311.694 96.481C312.234 96.4626 312.634 96.3088 312.885 96.1771C313.137 96.0454 313.248 95.9387 313.26 95.9542Z" fill="#263238"/>
<path d="M300.073 117.579C300.073 117.579 322.84 124.925 323.845 129.107C324.851 133.288 315.508 153.673 314.015 155.067C312.521 156.461 307.838 149.639 307.838 149.639C307.838 149.639 312.047 135.372 311.586 132.699L300.073 129.89V117.579Z" fill="#AE7461"/>
<path d="M330.055 195.447C330.055 195.447 330.063 196.57 326.057 197.656C322.051 198.743 304.142 199.142 304.142 199.142L321.237 192.157L330.055 195.447Z" fill="#BAB1F0"/>
<path d="M297.284 179.311C297.365 179.283 298.572 182.64 299.979 186.807C301.387 190.976 302.463 194.376 302.381 194.404C302.3 194.431 301.093 191.075 299.685 186.907C298.278 182.739 297.203 179.338 297.284 179.311Z" fill="#BAB1F0"/>
<path d="M290.91 173.438C290.91 173.438 266.589 184.228 259.396 190.822C259.396 190.822 254.771 192.877 256.912 203.754C259.053 214.63 266.247 242.633 266.247 242.633L275.067 239.807C275.067 239.807 274.725 224.649 274.211 218.569C273.697 212.488 269.758 204.696 270.1 203.668C270.443 202.641 297.761 195.447 297.761 195.447L299.502 189.267L290.91 173.438Z" fill="#AE7461"/>
<path d="M286.885 174.552L294.679 170.27L302.471 193.735L297.761 195.447C297.761 195.447 296.819 186.028 292.023 180.718C287.228 175.408 286.885 174.552 286.885 174.552Z" fill="#263238"/>
<path d="M276.126 250.785C276.126 250.785 275.9 246.026 275.793 243.551C275.685 241.075 274.667 226.91 274.667 226.91L262.982 229.688C262.982 229.688 266.165 242.08 266.057 243.371C265.949 244.663 264.555 248.63 264.606 248.746C264.658 248.862 269.554 255.445 269.554 255.445L276.126 250.785Z" fill="#E0E0E0"/>
<path d="M276.209 247.808C276.209 247.808 278.486 251.877 277.948 253.592C277.411 255.307 279.17 257.297 278.672 257.989C278.175 258.679 272.785 259.776 271.135 259.637C269.486 259.499 266.797 258.321 265.553 258.283C264.308 258.245 264.308 259.002 262.028 259.604C259.747 260.208 254.136 260.041 251.805 258.981C249.474 257.921 248.47 256.364 248.635 255.461C248.801 254.558 249.25 253.273 250.739 252.864C251.86 252.555 253.841 253.002 256.989 251.569C260.138 250.136 261.978 248.682 261.978 248.682C261.978 248.682 262.811 244.991 264.069 244.855C265.328 244.719 267.888 245.739 268.149 247.226C268.338 248.306 269.635 249.262 271.731 249.654C273.826 250.045 273.585 249.866 274.608 249.231C275.63 248.595 275.453 247.587 276.209 247.808Z" fill="#624AF6"/>
<path d="M264.168 251.104C264.083 251.141 263.761 250.423 263.022 249.857C262.293 249.277 261.518 249.139 261.534 249.048C261.525 248.967 262.402 248.974 263.212 249.613C264.029 250.243 264.248 251.092 264.168 251.104Z" fill="#263238"/>
<path d="M261.22 252.295C261.136 252.323 260.905 251.829 260.519 251.294C260.139 250.756 259.746 250.377 259.801 250.306C259.846 250.238 260.358 250.532 260.771 251.114C261.188 251.694 261.299 252.273 261.22 252.295Z" fill="#263238"/>
<path opacity="0.3" d="M269.203 259.222L274.179 257.13L277.948 253.592C278.181 252.849 277.886 251.665 277.476 250.56L277.197 250.321C277.197 250.321 275.203 253.364 271.62 254.767C268.037 256.17 262.824 257.837 260.857 258.014C258.889 258.191 255.357 258.089 252.277 256.932C250.456 256.248 249.431 255.008 248.854 254.661C248.751 254.939 248.681 255.215 248.636 255.462C248.47 256.365 249.474 257.923 251.805 258.982C254.136 260.042 259.748 260.208 262.028 259.606C264.309 259.003 264.309 258.246 265.553 258.284C266.377 258.308 267.833 258.83 269.203 259.222Z" fill="white"/>
<path d="M277.948 253.592C278.058 253.243 278.047 252.794 277.966 252.304C277.387 252.947 274.313 254.788 272.8 255.487C271.433 256.118 268.162 257.572 265.69 258.3C266.982 258.405 269.54 259.504 271.135 259.637C272.784 259.776 278.175 258.679 278.672 257.989C279.169 257.297 277.41 255.307 277.948 253.592Z" fill="#263238"/>
<path d="M258.532 253.521C258.449 253.55 258.206 253.063 257.883 252.483C257.564 251.901 257.281 251.436 257.35 251.381C257.414 251.328 257.821 251.725 258.155 252.333C258.491 252.939 258.61 253.495 258.532 253.521Z" fill="#263238"/>
<path d="M265.313 251.017C265.28 250.929 266.217 250.604 267.07 249.783C267.936 248.975 268.31 248.058 268.397 248.096C268.475 248.106 268.21 249.139 267.283 250.008C266.366 250.886 265.32 251.096 265.313 251.017Z" fill="#263238"/>
<path d="M302.866 191.73C303.208 192.243 314.25 222.445 316.048 226.042C317.846 229.639 319.485 231.873 323.18 236.901C326.384 241.259 336.985 258.806 338.919 269.488L345.77 266.576C345.77 266.576 342.583 246.826 341.745 241.314C340.037 230.078 329.112 220.126 329.112 220.126C329.112 220.126 328.645 215.3 328.178 208.036C327.771 201.711 326.918 190.667 326.918 190.667L302.866 191.73Z" fill="#AE7461"/>
<path opacity="0.3" d="M327.383 197.033C327.383 197.033 322.118 196.219 317.157 197.665C312.195 199.11 306.287 200.724 306.287 200.724L305.289 198.058L327.106 193.133L327.383 197.033Z" fill="black"/>
<path d="M315.474 158.117C315.474 158.117 326.488 169.706 327.413 176.822C328.158 182.557 330.055 195.447 330.055 195.447C323.598 194.444 315.317 196.596 304.142 199.142C304.142 199.142 295.075 175.77 294.182 170.771C293.289 165.771 291.589 163.085 291.589 163.085L315.474 158.117Z" fill="#263238"/>
<path opacity="0.3" d="M320.266 164.12C319.99 164.279 312.011 173.08 304.601 173.438C297.191 173.797 294.183 170.771 294.183 170.771L320.266 164.12Z" fill="black"/>
<path d="M348.739 264.778C349.32 265.008 346.385 265.069 346.012 262.633C345.64 260.196 342.853 247.851 342.853 247.851C342.853 247.851 331.523 251.561 331.67 251.834C331.818 252.107 336.648 261.259 338.253 269.056C339.776 276.457 340.219 278.789 340.219 278.789C340.219 278.789 348.673 275.814 348.38 275.822C348.087 275.828 348.739 264.778 348.739 264.778Z" fill="#E0E0E0"/>
<path d="M347.044 263.828C347.044 263.828 351.647 264.568 352.658 266.055C353.669 267.541 356.322 267.397 356.554 268.217C356.787 269.035 354.3 273.942 353.168 275.149C352.035 276.356 349.443 277.734 348.64 278.686C347.838 279.638 348.431 280.107 347.488 282.27C346.545 284.432 342.931 288.728 340.653 289.898C338.375 291.068 336.531 290.888 335.926 290.198C335.321 289.507 334.593 288.358 335.196 286.936C335.649 285.866 337.229 284.59 338.061 281.232C338.892 277.874 338.893 275.529 338.893 275.529C338.893 275.529 336.517 272.585 337.192 271.514C337.867 270.443 340.256 269.068 341.583 269.786C342.547 270.309 344.102 269.885 345.71 268.485C347.318 267.085 347.027 267.163 347.164 265.967C347.301 264.77 346.401 264.282 347.044 263.828Z" fill="#624AF6"/>
<path d="M342.152 275.314C342.129 275.404 341.366 275.211 340.464 275.44C339.557 275.651 338.967 276.172 338.906 276.103C338.837 276.06 339.386 275.376 340.39 275.138C341.391 274.889 342.193 275.244 342.152 275.314Z" fill="#263238"/>
<path d="M341.256 278.364C341.226 278.448 340.695 278.322 340.037 278.293C339.378 278.257 338.838 278.329 338.816 278.242C338.792 278.164 339.34 277.945 340.052 277.983C340.765 278.016 341.288 278.289 341.256 278.364Z" fill="#263238"/>
<path opacity="0.3" d="M351.643 276.406L353.092 271.206L352.658 266.055C352.22 265.411 351.108 264.908 349.988 264.543L349.627 264.614C349.627 264.614 350.774 268.065 349.65 271.746C348.526 275.426 346.597 280.547 345.514 282.199C344.431 283.851 342.159 286.558 339.34 288.254C337.673 289.257 336.065 289.291 335.435 289.528C335.589 289.782 335.761 290.008 335.927 290.197C336.532 290.888 338.376 291.067 340.654 289.897C342.932 288.728 346.545 284.431 347.488 282.269C348.432 280.107 347.838 279.638 348.64 278.685C349.172 278.055 350.485 277.237 351.643 276.406Z" fill="white"/>
<path d="M352.658 266.055C352.452 265.752 352.093 265.482 351.659 265.241C351.803 266.094 351.339 269.647 350.947 271.267C350.594 272.731 349.702 276.198 348.738 278.588C349.623 277.641 352.072 276.317 353.168 275.149C354.3 273.942 356.787 269.035 356.554 268.216C356.321 267.398 353.668 267.541 352.658 266.055Z" fill="#263238"/>
<path d="M340.549 281.233C340.52 281.317 339.988 281.205 339.333 281.097C338.678 280.986 338.138 280.919 338.138 280.831C338.137 280.747 338.7 280.675 339.384 280.791C340.068 280.904 340.577 281.155 340.549 281.233Z" fill="#263238"/>
<path d="M342.796 274.362C342.706 274.333 343.032 273.397 342.918 272.219C342.822 271.039 342.336 270.175 342.419 270.13C342.476 270.076 343.121 270.925 343.227 272.191C343.347 273.456 342.861 274.405 342.796 274.362Z" fill="#263238"/>
<path d="M323.967 188L318.87 188.879L319.51 192.594L324.608 191.715L323.967 188Z" fill="#BAB1F0"/>
<path d="M320.771 163.691C320.339 163.979 310.592 170.023 301.677 171.742C292.763 173.461 291.905 170.948 291.905 170.948L286.99 154.865C286.99 154.865 279.434 137.003 280.766 131.443C282.099 125.883 290.957 114.586 290.957 114.586C290.957 114.586 294.606 112.226 295.181 112.37C295.756 112.513 301.506 116.682 303.232 119.558C304.957 122.433 312.576 149.029 314.445 153.629C316.315 158.228 320.771 163.691 320.771 163.691Z" fill="#624AF6"/>
<g opacity="0.3">
<path d="M314.446 153.628C314.217 153.065 313.901 152.169 313.521 151.031C309.451 156.28 304.512 160.856 298.951 164.49C297.342 165.541 295.629 166.534 293.729 166.827C292.669 166.99 291.54 166.882 290.545 166.496L291.274 168.884C295.582 168.517 299.878 166.66 303.897 164.843C308.578 162.727 313.674 160.608 318.677 160.907C317.259 158.91 315.467 156.143 314.446 153.628Z" fill="white"/>
</g>
<path d="M311.842 145.796C311.842 145.796 304.106 148.471 300.073 150.445C288.464 156.128 287.411 152.339 287.411 152.339L283.224 139.251C283.224 139.251 296.701 139.07 298.154 135.595C299.607 132.12 299.473 122.794 298.154 119.77C296.834 116.746 293.341 113.659 290.958 114.586C288.574 115.514 295.054 112.174 295.054 112.174C295.054 112.174 302.776 117.154 303.082 117.58C303.388 118.006 311.842 145.796 311.842 145.796Z" fill="#263238"/>
<path d="M306.528 116.513C307.253 117.215 307.725 118.22 308.18 119.199C309.901 122.901 311.622 126.601 313.343 130.302C314.356 132.481 315.383 134.703 315.804 137.151C316.225 139.6 315.952 142.356 314.598 144.24C313.74 145.434 312.313 146.202 311.11 145.589C309.941 144.993 309.405 143.383 308.997 141.925C306.67 133.606 303.306 125.521 301.738 116.944L300.69 115.903C303.498 113.956 305.804 115.812 306.528 116.513Z" fill="#263238"/>
<path d="M300.69 116.62C300.701 116.618 300.733 116.725 300.784 116.93C300.841 117.17 300.913 117.467 301 117.83C301.199 118.655 301.471 119.775 301.802 121.138C302.491 123.929 303.458 127.78 304.594 132.015C305.164 134.132 305.721 136.145 306.27 137.963C306.816 139.777 307.366 141.401 308.055 142.648C308.728 143.908 309.663 144.658 310.393 144.959C311.127 145.268 311.592 145.223 311.587 145.259C311.587 145.266 311.475 145.285 311.261 145.273C311.048 145.261 310.731 145.215 310.347 145.071C309.967 144.924 309.521 144.678 309.085 144.293C308.647 143.91 308.228 143.386 307.864 142.756C307.135 141.495 306.56 139.863 305.996 138.046C305.432 136.228 304.865 134.214 304.295 132.094C303.157 127.856 302.223 123.993 301.589 121.188C301.271 119.785 301.033 118.646 300.882 117.855C300.803 117.46 300.756 117.151 300.723 116.942C300.691 116.733 300.679 116.622 300.69 116.62Z" fill="#BAB1F0"/>
<path d="M300.124 119.072C298.571 115.541 295.219 111.972 290.984 112.552C287.993 112.96 285.642 115.741 285.59 118.712C285.574 119.671 287.064 119.672 287.08 118.712C287.12 116.476 288.96 114.276 291.242 114.011C294.868 113.588 297.538 116.87 298.838 119.824C299.223 120.699 300.507 119.942 300.124 119.072Z" fill="#263238"/>
<path d="M302.327 123.79C302.274 123.802 302.094 123.029 301.668 121.829C301.24 120.632 300.524 119.01 299.393 117.436C298.822 116.654 298.204 115.967 297.602 115.385C296.992 114.81 296.397 114.34 295.874 113.981C294.825 113.261 294.103 112.929 294.128 112.876C294.137 112.857 294.322 112.927 294.652 113.072C294.985 113.21 295.447 113.457 295.995 113.798C296.543 114.14 297.164 114.6 297.797 115.176C298.424 115.759 299.062 116.456 299.644 117.255C300.8 118.863 301.497 120.53 301.876 121.759C302.065 122.375 302.192 122.881 302.254 123.235C302.321 123.589 302.348 123.786 302.327 123.79Z" fill="#BAB1F0"/>
<path d="M306.364 138.752C306.361 138.762 306.258 138.748 306.072 138.686C305.885 138.625 305.615 138.518 305.289 138.334C304.645 137.974 303.744 137.263 303.158 136.033C302.609 134.8 302.244 133.264 301.822 131.565C301.417 129.861 301.017 127.979 300.635 125.996C300.21 124.041 299.614 122.207 298.859 120.646C298.1 119.087 297.189 117.798 296.271 116.862C295.353 115.927 294.483 115.3 293.85 114.926C293.221 114.546 292.852 114.366 292.865 114.339C292.87 114.329 292.965 114.366 293.144 114.445C293.319 114.532 293.593 114.63 293.912 114.822C294.569 115.167 295.473 115.775 296.428 116.708C297.383 117.64 298.331 118.943 299.117 120.521C299.899 122.104 300.508 123.948 300.94 125.938C301.321 127.916 301.713 129.798 302.101 131.5C302.504 133.193 302.853 134.742 303.357 135.94C303.894 137.132 304.74 137.846 305.351 138.23C305.973 138.619 306.372 138.729 306.364 138.752Z" fill="#BAB1F0"/>
<path opacity="0.3" d="M294.497 135.216C294.497 135.216 293.232 148.365 291.542 152.167C289.852 155.968 287.506 156.552 287.506 156.552L286.708 153.576L289.759 132.596L294.497 135.216Z" fill="black"/>
<path opacity="0.3" d="M300.631 194.404C300.631 194.404 298.982 184.339 298.375 182.54C297.768 180.742 302.071 193.878 302.071 193.878L300.631 194.404Z" fill="black"/>
<path d="M293.123 134.865C293.065 135.433 290.828 152.336 288.045 154.501C285.261 156.665 270.995 152.1 262.801 146.225L264.892 140.32C264.892 140.32 274.13 143.986 280.16 144.141C280.16 144.141 280.623 130.845 281.551 129.453C282.479 128.062 293.51 131.064 293.123 134.865Z" fill="#AE7461"/>
<path d="M265.067 140.157C265.067 140.157 262.854 135.663 261.915 134.322C260.976 132.98 259.232 132.109 259.232 132.109L258.494 133.047C258.494 133.047 256.281 132.377 256.08 133.316C255.878 134.254 255.678 134.724 255.678 134.724C255.678 134.724 254.202 134.925 254.47 136.602C254.47 136.602 253.196 136.938 253.33 138.212C253.464 139.486 253.464 139.486 253.464 139.486C253.464 139.486 252.122 139.888 252.726 141.029C253.33 142.169 263.188 146.394 263.188 146.394L265.804 144.449L265.067 140.157Z" fill="#AE7461"/>
<path d="M265.446 140.534L262.801 146.556L264.318 147.255L267.089 141.13L265.446 140.534Z" fill="#263238"/>
<path d="M263.808 146.335L263.936 146.387C264.369 146.559 264.858 146.349 265.031 145.917L266.313 142.707C266.485 142.276 266.275 141.786 265.843 141.613L265.715 141.562C265.283 141.389 264.794 141.599 264.621 142.032L263.339 145.241C263.166 145.673 263.377 146.162 263.808 146.335Z" fill="#BAB1F0"/>
<path d="M258.297 132.982C258.301 132.903 259.188 132.952 260.12 133.482C261.057 134.005 261.559 134.738 261.493 134.782C261.424 134.843 260.848 134.241 259.968 133.753C259.095 133.253 258.28 133.072 258.297 132.982Z" fill="#6F4439"/>
<path d="M291.253 114.586C291.253 114.586 295.552 116.159 296.496 121.403C297.226 125.459 295.028 135.595 295.028 135.595C295.028 135.595 288.01 131.052 285.069 131.052C282.129 131.052 279.926 133.568 279.926 133.568C279.926 133.568 282.443 123.186 283.387 120.669C284.331 118.152 288.285 114.34 291.253 114.586Z" fill="#624AF6"/>
<path d="M279.926 133.568C279.919 133.562 279.986 133.468 280.122 133.291C280.198 133.196 280.283 133.089 280.379 132.967C280.499 132.847 280.632 132.713 280.779 132.565C281.386 131.984 282.491 131.24 284.058 131.087C285.616 130.914 287.488 131.337 289.372 132.183C290.321 132.599 291.281 133.116 292.256 133.692C292.74 133.985 293.233 134.284 293.733 134.588C293.983 134.74 294.234 134.893 294.49 135.036C294.618 135.108 294.748 135.178 294.876 135.237C294.993 135.294 295.164 135.352 295.205 135.343L295.093 135.463C295.259 134.627 295.434 133.747 295.611 132.853C295.88 131.516 296.124 130.21 296.263 128.937C296.391 127.666 296.481 126.423 296.523 125.249C296.613 122.902 296.331 120.762 295.595 119.146C294.882 117.521 293.854 116.449 293.048 115.884C292.24 115.305 291.69 115.16 291.707 115.123C291.707 115.123 292.271 115.225 293.117 115.785C293.96 116.33 295.041 117.404 295.795 119.056C296.576 120.7 296.884 122.887 296.809 125.257C296.773 126.446 296.691 127.681 296.565 128.97C296.428 130.258 296.185 131.574 295.915 132.913C295.737 133.806 295.561 134.684 295.394 135.519L295.372 135.632L295.282 135.64C295.224 135.644 295.164 135.645 295.106 135.641C295.059 135.632 295.02 135.618 294.977 135.606C294.888 135.584 294.825 135.546 294.749 135.516C294.606 135.449 294.472 135.377 294.341 135.302C294.077 135.154 293.826 134.998 293.575 134.845C293.077 134.54 292.587 134.24 292.106 133.945C291.14 133.368 290.192 132.85 289.26 132.432C287.409 131.581 285.587 131.15 284.078 131.291C282.559 131.412 281.474 132.102 280.853 132.648C280.701 132.786 280.564 132.912 280.441 133.025C280.338 133.139 280.246 133.24 280.166 133.329C280.016 133.491 279.934 133.574 279.926 133.568Z" fill="#263238"/>
<path d="M104.773 39.9368C103.607 40.7307 101.892 40.5876 100.873 39.6126C100.566 39.3187 100.314 38.9456 100.257 38.5249C100.201 38.1041 100.376 37.6362 100.749 37.4318C100.069 37.3329 99.4157 36.9765 99.0211 36.4138C98.6266 35.8512 98.5193 35.08 98.8084 34.456C99.0974 33.832 99.8001 33.407 100.48 33.503C100.14 32.8426 100.225 31.9868 100.688 31.4062L103.71 30.6964L104.773 39.9368Z" fill="#263238"/>
<path d="M122.812 66.2067L118.894 58.3341C118.894 58.3341 112.759 60.1984 109.938 54.5263C108.575 51.7864 106.228 45.9176 104.165 40.581C101.948 34.8434 104.509 28.3654 110.05 25.6942L110.6 25.4289C116.704 22.9132 122.25 26.6919 124.596 32.8629L133.661 55.8094L129.241 65.5028L122.812 66.2067Z" fill="#FFBF9D"/>
<path d="M118.894 58.3335C118.894 58.3335 122.637 56.902 125.572 53.165C125.572 53.165 125.556 57.5504 119.615 59.7818L118.894 58.3335Z" fill="#FF9A6C"/>
<path d="M108.41 45.37C108.602 45.8074 109.131 46.0059 109.592 45.8134C110.051 45.6215 110.27 45.1113 110.078 44.6738C109.885 44.2364 109.357 44.0373 108.896 44.2298C108.436 44.4223 108.218 44.9325 108.41 45.37Z" fill="#263238"/>
<path d="M106.738 42.781C106.89 42.8388 107.287 42.0842 108.166 41.6635C109.036 41.2308 109.898 41.372 109.941 41.2188C109.964 41.1485 109.769 41.0067 109.39 40.9375C109.017 40.8672 108.451 40.8964 107.906 41.1622C107.361 41.4286 106.999 41.8512 106.834 42.1844C106.664 42.5211 106.666 42.7577 106.738 42.781Z" fill="#263238"/>
<path d="M115.934 41.6676C116.126 42.105 116.655 42.3035 117.116 42.111C117.576 41.9191 117.794 41.4089 117.602 40.9714C117.409 40.534 116.88 40.3355 116.42 40.5274C115.96 40.7193 115.742 41.2301 115.934 41.6676Z" fill="#263238"/>
<path d="M115.436 38.7889C115.589 38.8461 115.986 38.0916 116.864 37.6714C117.735 37.2387 118.596 37.38 118.64 37.2268C118.664 37.157 118.469 37.014 118.09 36.9461C117.716 36.8757 117.15 36.9049 116.605 37.1708C116.06 37.4372 115.698 37.8597 115.533 38.1929C115.363 38.529 115.364 38.7651 115.436 38.7889Z" fill="#263238"/>
<path d="M115.389 46.8259C115.37 46.7741 114.779 46.9428 113.841 47.2557C113.606 47.3409 113.372 47.3981 113.261 47.2634C113.13 47.1269 113.108 46.8408 113.091 46.5279C113.04 45.8849 112.986 45.2102 112.931 44.5039C112.68 41.633 112.383 39.3163 112.267 39.3271C112.152 39.3384 112.262 41.6741 112.512 44.545C112.58 45.2507 112.643 45.923 112.705 46.5661C112.743 46.8611 112.737 47.2205 113.012 47.5006C113.154 47.6389 113.377 47.6812 113.539 47.6502C113.703 47.6246 113.831 47.5668 113.945 47.5197C114.857 47.1394 115.41 46.8772 115.389 46.8259Z" fill="#263238"/>
<path d="M113.553 35.462C113.754 35.6587 114.576 35.1235 115.664 34.7516C116.745 34.3577 117.72 34.2587 117.753 33.9792C117.765 33.8475 117.512 33.6931 117.065 33.624C116.622 33.5537 115.986 33.5906 115.335 33.8195C114.685 34.0495 114.167 34.4202 113.866 34.7534C113.561 35.0878 113.461 35.3667 113.553 35.462Z" fill="#263238"/>
<path d="M105.837 40.0876C106.087 40.2127 106.592 39.7145 107.313 39.3545C108.022 38.9695 108.719 38.8413 108.761 38.5648C108.774 38.4337 108.581 38.2805 108.221 38.2221C107.866 38.1619 107.349 38.2221 106.857 38.4778C106.365 38.734 106.02 39.1232 105.866 39.4492C105.708 39.7776 105.722 40.0238 105.837 40.0876Z" fill="#263238"/>
<path d="M103.453 37.6994C103.453 37.6994 103.235 33.4004 104.556 31.7358C106.155 29.7207 108.157 31.5773 109.878 30.0634C111.598 28.549 113.122 26.6203 115.894 27.1776C118.929 27.7873 118.456 29.4698 119.814 31.9355C125.32 41.9316 128.594 43.9306 126.796 38.8383C126.599 38.2805 127.866 37.1505 127.005 34.8076C125.888 31.7692 124.301 28.192 122.66 26.4451C121.277 24.9724 119.709 24.2506 117.297 23.784C113.489 23.0479 109.619 24.8586 107.133 26.3813C104.646 27.9035 101.057 33.3396 103.453 37.6994Z" fill="#263238"/>
<path d="M126.357 38.8581C125.969 37.9599 126.393 36.899 127.31 36.5593C128.423 36.1475 129.899 36.1808 130.889 38.4135C132.645 42.3745 128.306 43.3209 128.249 43.2101C128.209 43.135 127.077 40.5221 126.357 38.8581Z" fill="#FFBF9D"/>
<path d="M128.449 41.338C128.461 41.3177 128.54 41.3558 128.68 41.3576C128.817 41.3594 129.028 41.3082 129.201 41.1395C129.551 40.8004 129.609 39.9803 129.312 39.2573C129.162 38.8926 128.935 38.5826 128.681 38.355C128.431 38.119 128.154 37.9992 127.927 38.0558C127.695 38.1005 127.602 38.2924 127.603 38.4253C127.599 38.5594 127.659 38.6273 127.641 38.6434C127.635 38.6583 127.527 38.6148 127.486 38.4372C127.468 38.3514 127.473 38.237 127.532 38.1201C127.593 38.0003 127.715 37.899 127.869 37.8502C128.184 37.7357 128.583 37.8949 128.862 38.1446C129.158 38.3883 129.423 38.7322 129.591 39.1423C129.919 39.9517 129.842 40.8802 129.342 41.2992C129.096 41.4959 128.826 41.5144 128.665 41.4744C128.499 41.4303 128.439 41.3511 128.449 41.338Z" fill="#FF9A6C"/>
<path d="M108.446 34.4053C108.437 34.4095 108.43 34.4173 108.42 34.4221C108.397 34.4353 108.374 34.4467 108.352 34.4605L108.446 34.4053Z" fill="#624AF6"/>
<path d="M98.0242 31.0409C97.8978 29.8835 98.5063 28.7302 99.3991 27.9828C100.292 27.236 101.434 26.8474 102.578 26.6335C101.832 25.246 102.914 23.4443 104.372 22.8483C105.83 22.2523 107.479 22.5104 109.032 22.778C110.295 20.9214 113.254 20.543 114.943 22.0222C115.727 20.9798 117.086 20.4017 118.38 20.5602C119.674 20.7188 120.854 21.6074 121.363 22.8078C122.379 22.5688 123.513 22.9311 124.2 23.7155C124.888 24.4998 125.1 25.6715 124.731 26.6472C125.581 26.7706 126.31 27.4858 126.45 28.3327C126.59 29.1796 126.13 30.0921 125.366 30.4824L121.368 29.2243C119.927 30.2041 117.681 29.6314 116.886 28.0806C115.896 29.0824 114.28 29.4025 112.983 28.8536C113.051 29.7082 112.668 30.5856 111.996 31.1166C111.323 31.6476 110.38 31.8163 109.565 31.5517C109.941 32.6584 109.618 33.9702 108.77 34.7754C107.923 35.5806 106.596 35.8357 105.51 35.403C104.888 36.6713 103.219 37.3055 101.912 36.7714C100.605 36.2368 99.8592 34.6151 100.304 33.2747C99.1399 33.2664 98.1511 32.1977 98.0242 31.0409Z" fill="#263238"/>
<path d="M117.382 28.6516C117.37 28.6611 117.432 28.7779 117.603 28.9448C117.774 29.1087 118.066 29.3215 118.492 29.4419C118.91 29.5623 119.484 29.5796 120.032 29.3072C120.572 29.0455 121.077 28.5163 121.257 27.8076L121.025 27.903C121.348 28.1015 121.728 28.2332 122.125 28.2773C122.972 28.3673 123.802 28.0693 124.33 27.5484C124.869 27.0275 125.069 26.351 125.101 25.8116C125.131 25.2615 124.993 24.8276 124.863 24.5577C124.727 24.2865 124.606 24.1679 124.593 24.1774C124.532 24.1971 124.979 24.7639 124.879 25.7932C124.823 26.289 124.615 26.8928 124.129 27.338C123.656 27.7862 122.912 28.0449 122.158 27.9644C121.805 27.9257 121.471 27.8106 121.188 27.6408L121.005 27.5317L120.955 27.7361C120.809 28.3429 120.377 28.822 119.909 29.067C119.437 29.3209 118.931 29.3316 118.54 29.2476C117.739 29.0622 117.415 28.6063 117.382 28.6516Z" fill="#BAB1F0"/>
<path d="M117.115 48.7391L117.127 48.5389C117.597 47.8374 118.067 47.1365 118.537 46.435C118.613 46.3212 118.696 46.202 118.82 46.1435C118.97 46.0738 119.147 46.109 119.302 46.1674C120.018 46.4362 120.513 47.2032 120.463 47.9661C120.412 48.729 119.82 49.4245 119.076 49.5962C118.331 49.7684 117.494 49.4025 117.115 48.7391Z" fill="#FF9A6C"/>
<path d="M118.869 49.6296C118.857 49.5938 119.359 49.5199 119.913 48.9835C120.048 48.8512 120.193 48.701 120.287 48.5109C120.387 48.3184 120.464 48.0949 120.475 47.8595C120.489 47.6241 120.421 47.3821 120.28 47.1663C120.14 46.9488 119.929 46.7622 119.696 46.5924C119.58 46.5072 119.459 46.4279 119.337 46.3522C119.214 46.2771 119.095 46.1966 118.989 46.1621C118.782 46.0768 118.622 46.258 118.496 46.4768C118.234 46.91 117.995 47.3058 117.786 47.6515C117.376 48.3172 117.106 48.7195 117.075 48.7016C117.044 48.6837 117.258 48.2493 117.628 47.5603C117.823 47.2063 118.046 46.8004 118.29 46.3564C118.357 46.2413 118.431 46.1144 118.562 46.0089C118.687 45.8962 118.907 45.8599 119.066 45.9207C119.229 45.9743 119.348 46.0601 119.473 46.1335C119.598 46.2103 119.724 46.2926 119.848 46.3832C120.095 46.5638 120.329 46.77 120.493 47.0286C120.658 47.2843 120.738 47.5925 120.713 47.8732C120.667 48.4352 120.347 48.8709 120.036 49.1188C119.728 49.3799 119.429 49.5241 119.214 49.5891C118.997 49.654 118.869 49.6439 118.869 49.6296Z" fill="#263238"/>
<path d="M159.969 84.9264C158.114 81.6502 153.796 80.4933 151.697 77.3679L157.453 101.071C157.981 98.3137 159.308 95.7813 160.162 93.1065C161.015 90.4316 161.352 87.37 159.969 84.9264Z" fill="#FFBF9D"/>
<path opacity="0.3" d="M158.359 82.9572L159.447 84.1426L156.301 88.1382L158.243 98.2553L157.569 99.9992L151.697 84.6289L158.359 82.9572Z" fill="black"/>
<path d="M133.911 157.255C133.911 157.255 128.918 170.746 130.587 175.167C132.255 179.587 139.474 181.928 143.757 185.15C148.04 188.372 169.474 203.314 169.474 203.314L175.287 197.36C175.287 197.36 164.961 186.309 160.329 180.651C155.697 174.992 146.501 169.339 146.501 169.339L150.825 157.895L133.911 157.255Z" fill="#FFBF9D"/>
<path d="M135.049 122.614C135.049 122.614 128.516 159.973 129.365 160.737C131.628 162.773 149.594 164.959 149.594 164.959C149.594 164.959 158.302 142.581 160.83 138.285C163.357 133.988 165.295 128.848 165.295 123.793C165.295 118.738 164.204 116.581 164.204 116.581L160.575 108.005L135.302 116.042L135.049 122.614Z" fill="#263238"/>
<path d="M131.907 163.512C131.907 163.512 130.848 167.39 130.602 169.154L146.501 169.339L147.766 165.989L131.907 163.512Z" fill="#BAB1F0"/>
<path d="M180.217 201.641C180.217 201.641 176.655 198.588 174.982 196.819C173.309 195.051 163.77 184.857 163.77 184.857L156.884 194.438C156.884 194.438 166.935 201.877 167.972 202.617C169.617 203.792 172.908 206.534 172.908 206.534L178.337 209.33L180.217 201.641Z" fill="#BAB1F0"/>
<path d="M114.123 140.559C113.871 141.317 102.933 154.349 102.933 156.623C102.933 158.898 121.736 199.545 122.747 205.863L130.771 204.65C130.771 204.65 129.793 188.834 127.266 177.965C124.738 167.097 121.705 159.261 121.705 159.261L128.276 150.92L114.123 140.559Z" fill="#FFBF9D"/>
<path d="M108.423 145.497C109.434 146.508 125.582 160.737 125.582 160.737L140.78 145.767L139.85 119.075H133.617C133.617 119.075 126.962 125.486 120.336 132.263C115.035 137.685 108.423 145.497 108.423 145.497Z" fill="#263238"/>
<g opacity="0.3">
<path d="M163.073 118.382C162.571 118.107 161.991 118.017 161.423 117.944C152.548 116.809 143.562 118.76 135.023 121.433L131.52 122.423C133.811 123.998 136.565 124.808 139.332 125.086C142.098 125.364 144.891 125.135 147.648 124.775C152.425 124.152 157.15 123.137 161.762 121.744C162.283 121.587 162.813 121.42 163.252 121.099C163.691 120.778 164.031 120.272 164.011 119.728C163.991 119.156 163.575 118.657 163.073 118.382Z" fill="black"/>
</g>
<path d="M154.883 135.502C154.89 135.51 154.799 135.61 154.618 135.794C154.412 135.998 154.146 136.262 153.817 136.588C153.114 137.27 152.078 138.238 150.769 139.4C148.16 141.737 144.451 144.842 140.331 148.238C136.21 151.636 132.482 154.713 129.839 157.004C128.513 158.143 127.457 159.086 126.729 159.739C126.384 160.048 126.105 160.297 125.89 160.49C125.695 160.66 125.589 160.745 125.582 160.737C125.574 160.729 125.666 160.629 125.847 160.445C126.053 160.241 126.318 159.978 126.648 159.651C127.351 158.969 128.386 158.001 129.695 156.839C132.304 154.503 136.013 151.397 140.135 147.999C144.255 144.603 147.982 141.526 150.625 139.236C151.951 138.096 153.008 137.154 153.735 136.5C154.08 136.191 154.359 135.942 154.574 135.749C154.769 135.579 154.875 135.494 154.883 135.502Z" fill="#BAB1F0"/>
<path d="M177.47 198.894C177.47 198.894 182.085 198.641 183.378 199.867C184.67 201.094 187.209 200.395 187.608 201.139C188.006 201.884 186.632 207.16 185.79 208.568C184.948 209.977 182.727 211.857 182.151 212.949C181.574 214.04 182.248 214.37 181.791 216.663C181.333 218.957 178.739 223.88 176.779 225.494C174.82 227.107 172.995 227.322 172.264 226.781C171.533 226.24 170.584 225.28 170.868 223.776C171.082 222.644 172.343 221.075 172.441 217.647C172.538 214.219 172.044 211.947 172.044 211.947C172.044 211.947 169.121 209.597 169.549 208.417C169.977 207.237 172.001 205.402 173.438 205.818C174.482 206.12 175.899 205.382 177.161 203.687C178.423 201.991 178.159 202.128 178.038 200.941C177.918 199.752 176.944 199.47 177.47 198.894Z" fill="#BAB1F0"/>
<path opacity="0.3" d="M177.47 198.894C177.47 198.894 182.085 198.641 183.378 199.867C184.67 201.094 187.209 200.395 187.608 201.139C188.006 201.884 186.632 207.16 185.79 208.568C184.948 209.977 182.727 211.857 182.151 212.949C181.574 214.04 182.248 214.37 181.791 216.663C181.333 218.957 178.739 223.88 176.779 225.494C174.82 227.107 172.995 227.322 172.264 226.781C171.533 226.24 170.584 225.28 170.868 223.776C171.082 222.644 172.343 221.075 172.441 217.647C172.538 214.219 172.044 211.947 172.044 211.947C172.044 211.947 169.121 209.597 169.549 208.417C169.977 207.237 172.001 205.402 173.438 205.818C174.482 206.12 175.899 205.382 177.161 203.687C178.423 201.991 178.159 202.128 178.038 200.941C177.918 199.752 176.944 199.47 177.47 198.894Z" fill="black"/>
<path d="M175.155 211.051C175.152 211.144 174.372 211.118 173.547 211.53C172.713 211.926 172.252 212.554 172.177 212.5C172.1 212.473 172.488 211.693 173.411 211.251C174.328 210.799 175.181 210.974 175.155 211.051Z" fill="#263238"/>
<path d="M174.931 214.195C174.919 214.284 174.379 214.274 173.734 214.384C173.089 214.488 172.581 214.672 172.541 214.592C172.501 214.52 172.985 214.192 173.684 214.079C174.382 213.96 174.946 214.114 174.931 214.195Z" fill="#263238"/>
<path opacity="0.3" d="M184.579 210.107L184.885 204.765L183.377 199.867C182.817 199.336 181.633 199.083 180.472 198.966L180.137 199.111C180.137 199.111 181.977 202.212 181.664 206.014C181.351 209.816 180.563 215.183 179.863 217.012C179.162 218.841 177.533 221.942 175.16 224.179C173.757 225.502 172.206 225.874 171.645 226.236C171.848 226.45 172.063 226.633 172.263 226.78C172.995 227.322 174.819 227.106 176.778 225.493C178.738 223.88 181.332 218.956 181.79 216.663C182.247 214.37 181.573 214.04 182.15 212.949C182.533 212.225 183.632 211.156 184.579 210.107Z" fill="white"/>
<path d="M183.378 199.867C183.115 199.618 182.71 199.432 182.239 199.291C182.559 200.086 182.858 203.625 182.821 205.277C182.787 206.769 182.655 210.315 182.225 212.834C182.882 211.73 184.975 209.931 185.79 208.568C186.632 207.16 188.006 201.884 187.608 201.139C187.209 200.395 184.67 201.093 183.378 199.867Z" fill="#263238"/>
<path d="M174.851 217.123C174.841 217.211 174.301 217.215 173.644 217.249C172.987 217.279 172.449 217.328 172.43 217.242C172.411 217.16 172.942 216.971 173.629 216.939C174.315 216.904 174.862 217.041 174.851 217.123Z" fill="#263238"/>
<path d="M175.578 209.993C175.484 209.984 175.602 209.009 175.243 207.892C174.901 206.769 174.249 206.035 174.321 205.974C174.365 205.908 175.17 206.595 175.539 207.799C175.921 209 175.651 210.022 175.578 209.993Z" fill="#263238"/>
<path d="M123.182 209.036L116.852 190.018L128.924 187.019C128.924 187.019 130.846 198.98 131.735 205.105C132.744 212.057 132.283 216.066 132.283 216.066L120.102 209.697L123.182 209.036Z" fill="#BAB1F0"/>
<path d="M133.028 207.552C133.028 207.552 135.258 211.694 134.688 213.416C134.117 215.137 135.859 217.174 135.346 217.863C134.833 218.552 129.377 219.569 127.715 219.403C126.053 219.237 123.359 218.004 122.104 217.946C120.849 217.887 120.837 218.65 118.526 219.221C116.216 219.792 110.557 219.532 108.223 218.425C105.889 217.318 104.901 215.73 105.083 214.822C105.265 213.913 105.739 212.624 107.248 212.235C108.384 211.942 110.374 212.425 113.575 211.031C116.775 209.637 118.655 208.199 118.655 208.199C118.655 208.199 119.556 204.489 120.828 204.373C122.101 204.257 124.667 205.327 124.905 206.832C125.079 207.925 126.372 208.91 128.48 209.34C130.588 209.769 130.347 209.585 131.389 208.96C132.43 208.337 132.269 207.316 133.028 207.552Z" fill="#BAB1F0"/>
<path opacity="0.3" d="M133.028 207.552C133.028 207.552 135.258 211.694 134.688 213.416C134.117 215.137 135.859 217.174 135.346 217.863C134.833 218.552 129.377 219.569 127.715 219.403C126.053 219.237 123.359 218.004 122.104 217.946C120.849 217.887 120.837 218.65 118.526 219.221C116.216 219.792 110.557 219.532 108.223 218.425C105.889 217.318 104.901 215.73 105.083 214.822C105.265 213.913 105.739 212.624 107.248 212.235C108.384 211.942 110.374 212.425 113.575 211.031C116.775 209.637 118.655 208.199 118.655 208.199C118.655 208.199 119.556 204.489 120.828 204.373C122.101 204.257 124.667 205.327 124.905 206.832C125.079 207.925 126.372 208.91 128.48 209.34C130.588 209.769 130.347 209.585 131.389 208.96C132.43 208.337 132.269 207.316 133.028 207.552Z" fill="black"/>
<path d="M120.825 210.68C120.739 210.716 120.427 209.986 119.689 209.403C118.963 208.805 118.184 208.654 118.201 208.563C118.193 208.482 119.078 208.503 119.884 209.161C120.698 209.81 120.905 210.671 120.825 210.68Z" fill="#263238"/>
<path d="M117.832 211.833C117.746 211.861 117.522 211.358 117.141 210.812C116.766 210.262 116.376 209.874 116.432 209.803C116.479 209.736 116.99 210.041 117.396 210.635C117.808 211.227 117.911 211.813 117.832 211.833Z" fill="#263238"/>
<path opacity="0.3" d="M125.773 218.954L130.827 216.924L134.687 213.416C134.934 212.669 134.655 211.47 134.26 210.349L133.982 210.102C133.982 210.102 131.921 213.14 128.283 214.496C124.645 215.853 119.358 217.45 117.37 217.596C115.383 217.742 111.82 217.582 108.732 216.364C106.906 215.643 105.892 214.376 105.316 214.016C105.207 214.296 105.131 214.573 105.081 214.822C104.899 215.73 105.887 217.317 108.222 218.425C110.556 219.532 116.215 219.792 118.525 219.221C120.836 218.65 120.848 217.887 122.103 217.945C122.936 217.985 124.396 218.535 125.773 218.954Z" fill="white"/>
<path d="M134.687 213.416C134.803 213.065 134.8 212.612 134.726 212.116C134.131 212.755 130.999 214.563 129.461 215.243C128.072 215.857 124.748 217.27 122.241 217.964C123.543 218.092 126.106 219.242 127.714 219.403C129.375 219.569 134.832 218.552 135.345 217.863C135.859 217.174 134.117 215.137 134.687 213.416Z" fill="#263238"/>
<path d="M115.099 213.026C115.015 213.054 114.779 212.559 114.463 211.967C114.15 211.375 113.872 210.901 113.941 210.847C114.007 210.796 114.41 211.203 114.737 211.822C115.067 212.439 115.178 213.001 115.099 213.026Z" fill="#263238"/>
<path d="M121.982 210.611C121.951 210.523 122.9 210.21 123.775 209.396C124.663 208.595 125.056 207.675 125.141 207.714C125.219 207.726 124.934 208.763 123.985 209.624C123.045 210.495 121.987 210.69 121.982 210.611Z" fill="#263238"/>
<path d="M120.736 147.282C121.482 146.928 122.483 147.284 122.837 148.03C123.191 148.777 122.835 149.778 122.089 150.132C121.343 150.486 120.341 150.129 119.987 149.383C119.633 148.637 119.99 147.636 120.736 147.282Z" fill="#BAB1F0"/>
<g opacity="0.5">
<path d="M122.131 35.8291C122.648 35.527 122.091 34.6902 122.091 34.6902C122.091 34.6902 118.66 34.7164 116.202 35.9293C113.743 37.1421 112.515 38.8765 112.515 38.8765C112.515 38.8765 111.165 39.0809 110.559 39.8945C110.559 39.8945 109.381 38.9271 106.118 40.711C103.271 42.2683 103.798 42.9776 103.798 42.9776L104.253 43.7428C104.534 44.1678 107.107 47.3135 109.106 46.429C111.49 45.3741 111.501 42.7034 111.501 42.7034L111.294 40.4773C111.294 40.4773 112.013 39.7919 112.707 39.8957C112.707 39.8957 114.814 43.775 118.642 42.5985C120.667 41.9763 121.555 39.8092 121.781 38.2769C121.939 37.2059 121.614 36.1319 122.131 35.8291Z" fill="#624AF6"/>
</g>
<path d="M127.307 36.4879L126.467 36.4116C124.886 36.7608 123.329 37.2144 121.812 37.7788V36.9134L124.673 36.2489L121.963 36.0027C121.231 35.8889 119.089 35.6868 116.604 36.6547C113.529 37.8527 112.706 39.8952 112.706 39.8952C112.013 39.7915 111.294 40.4769 111.294 40.4769C110.781 40.0728 108.673 40.3154 107.256 41.1075C106.297 41.6427 105.04 42.7101 104.135 43.5385L103.798 42.9783C103.798 42.9783 103.271 42.2691 106.118 40.7117C109.381 38.9273 110.559 39.8952 110.559 39.8952C111.165 39.0817 112.515 38.8772 112.515 38.8772C112.515 38.8772 113.743 37.1429 116.202 35.93C118.66 34.7171 122.091 34.6909 122.091 34.6909L127.185 35.3721C127.185 35.3721 127.361 35.9962 127.307 36.4879Z" fill="#263238"/>
<path opacity="0.2" d="M114.733 42.0507L119.059 36.0121L120.717 35.9048L116.28 42.7153C116.28 42.7153 115.132 42.4107 114.733 42.0507Z" fill="white"/>
<path opacity="0.2" d="M104.66 43.7613C104.66 43.7613 106.273 46.2347 107.342 45.423C108.411 44.6112 109.152 41.1443 108.585 41.0787C108.018 41.0132 105.387 42.6051 104.773 43.7172" fill="white"/>
<path d="M119.872 75.0114C119.94 76.3625 121.561 89.3512 123.246 93.1703C124.931 96.9895 129.76 109.618 130.771 113.998C131.781 118.379 129.938 122.355 131.412 122.62C132.885 122.884 162.956 120.406 164.165 119.716C167.023 118.085 163.378 115.049 159.447 103.142C155.516 91.2351 151.469 79.5291 148.323 73.5756C145.178 67.6222 138.663 57.9622 134.62 55.8279C130.576 53.6937 125.268 55.8142 123.247 58.1732C121.225 60.5322 119.637 70.334 119.872 75.0114Z" fill="#624AF6"/>
<path opacity="0.3" d="M150.9 93.4075C150.805 90.8972 147.1 81.832 147.1 81.832L145.86 79.566L135.971 83.5837L139.164 100.58L128.623 107.114L129.667 110.606C129.667 110.606 142.92 105.994 147.1 102.125C151.244 98.2882 150.995 95.9185 150.9 93.4075Z" fill="black"/>
<path d="M160.904 78.2936C161.017 73.2389 143.314 54.4929 139.158 52.1339C135.002 49.775 130.544 53.1996 129.612 54.1764C125.457 55.5335 123.725 57.0777 122.938 58.6953C122.938 58.6953 130.691 55.4006 134.007 57.5951C137.159 59.6823 145.169 71.604 145.169 71.604C145.169 71.604 146.035 72.7531 144.666 74.2384C143.477 75.5287 132.187 76.6963 131.858 76.8649C131.529 77.0336 126.18 78.4074 124.258 77.846C122.336 77.2845 121.846 61.1007 121.846 61.1007C121.846 61.1007 119.849 66.5744 119.872 75.0108C119.887 80.3057 120.785 85.9498 121.14 87.3194C121.849 90.0562 123.362 98.3507 125.15 99.8109C126.938 101.271 143.606 93.7937 146.293 91.6469C148.98 89.5001 155.692 91.2703 155.692 91.2703L154.052 85.1446C154.052 85.1446 160.792 83.3482 160.904 78.2936Z" fill="#263238"/>
<path d="M152.996 83.3518C152.987 83.3571 152.917 83.2594 152.792 83.0681C152.653 82.8458 152.477 82.5662 152.261 82.2229C151.811 81.4827 151.175 80.4022 150.399 79.0617C148.837 76.3881 146.731 72.6625 144.148 68.7122C141.586 64.7464 138.955 61.3653 136.82 59.1333C136.304 58.5576 135.792 58.0825 135.344 57.663C135.124 57.4532 134.917 57.2565 134.725 57.0735C134.528 56.9001 134.338 56.7535 134.172 56.614C133.862 56.3541 133.609 56.1426 133.409 55.9745C133.236 55.8255 133.148 55.7427 133.154 55.7337C133.16 55.7248 133.26 55.7909 133.446 55.9238C133.657 56.0806 133.922 56.2779 134.248 56.5198C134.419 56.6521 134.617 56.7934 134.821 56.9609C135.019 57.1391 135.233 57.3298 135.461 57.5342C135.922 57.9443 136.448 58.4109 136.977 58.9801C139.165 61.1865 141.838 64.5658 144.407 68.5423C146.997 72.504 149.076 76.2516 150.589 78.9533C151.323 80.2806 151.925 81.3677 152.365 82.1621C152.56 82.5174 152.719 82.8064 152.845 83.0365C152.953 83.2379 153.005 83.3464 152.996 83.3518Z" fill="#BAB1F0"/>
<path d="M121.065 71.9425C118.903 68.298 118.892 63.6712 121.182 60.0821C122.215 58.4634 123.662 57.1135 125.35 56.1974C126.587 55.5263 128.998 54.5858 130.094 56.0085C130.671 56.7576 131.966 56.0162 131.38 55.2563C130.026 53.4981 127.679 53.5738 125.78 54.3504C123.629 55.2301 121.787 56.7392 120.403 58.5951C117.357 62.6789 117.196 68.3427 119.779 72.6947C120.268 73.5184 121.557 72.7698 121.065 71.9425Z" fill="#263238"/>
<path d="M120.33 106.497C120.33 106.497 113.71 107.545 112.349 108.15C110.987 108.756 109.625 111.585 109.625 111.585C109.625 111.585 109.322 116.171 109.625 116.625C109.928 117.079 110.76 117.155 110.76 117.155C110.76 117.155 111.138 118.743 111.743 118.668C112.349 118.592 113.332 118.67 113.332 118.67C113.332 118.67 116.737 119.581 117.191 118.67C117.645 117.759 117.115 117.154 117.115 117.154L116.103 116.775V115.414C116.103 115.414 117.115 116.246 119.158 115.111C121.202 113.976 123.247 110.786 123.247 110.786L120.33 106.497Z" fill="#FFBF9D"/>
<path d="M129.668 82.4119C129.839 82.8613 135.41 91.8216 135.073 93.2818C134.736 94.742 121.11 104.848 119.313 106.758C117.516 108.667 122.67 111.389 122.67 111.389C122.67 111.389 133.424 107.132 138.612 104.257C143.914 101.319 148.165 98.0498 148.277 95.2414C148.389 92.433 143.565 75.4077 143.565 75.4077L129.668 82.4119Z" fill="#FFBF9D"/>
<path d="M119.313 106.758L122.67 111.388L123.963 110.869L120.87 105.373L119.313 106.758Z" fill="#263238"/>
<path d="M122.938 58.6953C122.628 58.9564 120.189 64.5981 121.545 68.7457C122.718 72.3348 128.253 84.9599 128.536 84.6231C128.819 84.2864 146.435 78.2602 146.097 76.3506C145.761 74.4405 135.378 48.2177 122.938 58.6953Z" fill="#624AF6"/>
<path opacity="0.3" d="M126.126 56.7618C126.126 56.7618 123.405 57.7727 122.938 58.6953L134.791 82.1717L137.866 80.9463L126.126 56.7618Z" fill="white"/>
<path d="M123.043 58.3854C123.039 58.3812 123.094 58.3341 123.203 58.2453C123.325 58.1482 123.487 58.0195 123.691 57.8567C123.91 57.6905 124.166 57.4628 124.52 57.2703C124.871 57.0748 125.247 56.7905 125.741 56.6087C126.675 56.1421 127.965 55.8125 129.458 55.8911C130.952 55.9698 132.618 56.5533 134.161 57.6201C137.287 59.7353 140.046 63.3751 142.437 67.6711C143.632 69.8292 144.752 72.1691 145.712 74.68C145.831 74.9947 145.945 75.313 146.053 75.636C146.105 75.8005 146.158 75.9597 146.203 76.1319C146.22 76.2296 146.256 76.2815 146.254 76.4233C146.249 76.5467 146.204 76.6474 146.155 76.7344C145.944 77.0706 145.657 77.2744 145.377 77.4872C145.092 77.6922 144.795 77.8758 144.494 78.051C143.284 78.7471 142.005 79.3348 140.705 79.9129C138.1 81.0578 135.512 82.0633 133.011 83.0217C131.761 83.4996 130.533 83.9699 129.33 84.43L128.888 84.6106L128.679 84.7059L128.641 84.7268C128.641 84.7268 128.652 84.7173 128.645 84.7214C128.618 84.7506 128.563 84.7763 128.519 84.7757C128.478 84.7751 128.477 84.7679 128.455 84.7614C128.338 84.6964 128.346 84.6684 128.306 84.6291C128.108 84.3448 127.971 84.0664 127.821 83.7839C127.531 83.2201 127.263 82.6569 127.001 82.099C124.938 77.6243 123.216 73.5381 121.893 70.0533C121.568 69.1855 121.261 68.332 121.163 67.4851C121.037 66.646 121.042 65.8443 121.099 65.1035C121.214 63.6195 121.512 62.3685 121.804 61.3684C122.1 60.3671 122.4 59.6126 122.627 59.1125C122.849 58.6083 123.032 58.3729 123.043 58.3854C123.049 58.3926 123.001 58.445 122.94 58.5702C122.876 58.6941 122.791 58.8843 122.685 59.1364C122.478 59.6418 122.198 60.3999 121.921 61.4006C121.649 62.4007 121.371 63.6469 121.274 65.1142C121.148 66.5858 121.356 68.2605 122.1 69.9752C123.445 73.4392 125.189 77.5188 127.261 81.9769C127.524 82.5317 127.793 83.0926 128.081 83.6492C128.225 83.9234 128.374 84.2131 128.542 84.4515L128.571 84.4878C128.573 84.492 128.604 84.4848 128.533 84.5587C128.518 84.6094 128.519 84.6046 128.517 84.6076C128.334 84.4437 128.481 84.548 128.448 84.5051L128.477 84.483L128.543 84.4449L128.771 84.3406L129.22 84.1558C130.423 83.6928 131.651 83.2201 132.901 82.7392C135.4 81.7778 137.983 80.7706 140.58 79.6304C141.874 79.0559 143.148 78.4694 144.337 77.7858C144.911 77.4401 145.544 77.0748 145.889 76.5819C145.971 76.4502 145.953 76.3894 145.905 76.207C145.865 76.0514 145.811 75.8893 145.762 75.7314C145.657 75.4137 145.544 75.099 145.427 74.7873C144.478 72.2943 143.368 69.9591 142.186 67.8099C139.823 63.5283 137.099 59.9058 134.038 57.8025C132.527 56.7404 130.905 56.1581 129.446 56.0646C127.989 55.9716 126.719 56.275 125.789 56.7196C125.298 56.89 124.922 57.1642 124.569 57.3496C124.212 57.5319 123.951 57.7501 123.728 57.9074C123.517 58.0594 123.349 58.1792 123.222 58.2704C123.107 58.3502 123.047 58.3896 123.043 58.3854Z" fill="#263238"/>
<defs>
<clipPath id="clip0_3244_647">
<rect width="566" height="112" fill="white" transform="translate(-88 283)"/>
</clipPath>
</defs>
</svg>
