<svg width="24" height="24" viewBox="0 0 24 24" fill="none" xmlns="http://www.w3.org/2000/svg">
<path d="M10.7999 2.3999C9.52686 2.3999 8.30596 2.90562 7.40579 3.80579C6.50561 4.70596 5.9999 5.92686 5.9999 7.1999C5.9999 8.47294 6.50561 9.69384 7.40579 10.594C8.30596 11.4942 9.52686 11.9999 10.7999 11.9999C12.0729 11.9999 13.2938 11.4942 14.194 10.594C15.0942 9.69384 15.5999 8.47294 15.5999 7.1999C15.5999 5.92686 15.0942 4.70596 14.194 3.80579C13.2938 2.90562 12.0729 2.3999 10.7999 2.3999ZM4.8107 13.1999C4.49462 13.1985 4.18137 13.2595 3.88895 13.3795C3.59652 13.4995 3.33067 13.676 3.10666 13.899C2.88265 14.122 2.70491 14.3871 2.58362 14.679C2.46233 14.9708 2.3999 15.2838 2.3999 15.5999C2.3999 17.6291 3.3995 19.1591 4.9619 20.1563C6.5003 21.1367 8.5739 21.5999 10.7999 21.5999C11.2935 21.5999 11.7775 21.5771 12.2519 21.5315C11.3101 20.3606 10.7976 18.9025 10.7999 17.3999C10.7999 15.8039 11.3663 14.3399 12.3083 13.1999H4.8107ZM17.3999 22.7999C18.8321 22.7999 20.2056 22.231 21.2183 21.2183C22.231 20.2056 22.7999 18.8321 22.7999 17.3999C22.7999 15.9677 22.231 14.5942 21.2183 13.5815C20.2056 12.5688 18.8321 11.9999 17.3999 11.9999C15.9677 11.9999 14.5942 12.5688 13.5815 13.5815C12.5688 14.5942 11.9999 15.9677 11.9999 17.3999C11.9999 18.8321 12.5688 20.2056 13.5815 21.2183C14.5942 22.231 15.9677 22.7999 17.3999 22.7999ZM17.3999 14.3999C17.559 14.3999 17.7116 14.4631 17.8242 14.5756C17.9367 14.6882 17.9999 14.8408 17.9999 14.9999V16.7999H19.7999C19.959 16.7999 20.1116 16.8631 20.2242 16.9756C20.3367 17.0882 20.3999 17.2408 20.3999 17.3999C20.3999 17.559 20.3367 17.7116 20.2242 17.8242C20.1116 17.9367 19.959 17.9999 19.7999 17.9999H17.9999V19.7999C17.9999 19.959 17.9367 20.1116 17.8242 20.2242C17.7116 20.3367 17.559 20.3999 17.3999 20.3999C17.2408 20.3999 17.0882 20.3367 16.9756 20.2242C16.8631 20.1116 16.7999 19.959 16.7999 19.7999V17.9999H14.9999C14.8408 17.9999 14.6882 17.9367 14.5756 17.8242C14.4631 17.7116 14.3999 17.559 14.3999 17.3999C14.3999 17.2408 14.4631 17.0882 14.5756 16.9756C14.6882 16.8631 14.8408 16.7999 14.9999 16.7999H16.7999V14.9999C16.7999 14.8408 16.8631 14.6882 16.9756 14.5756C17.0882 14.4631 17.2408 14.3999 17.3999 14.3999Z" fill="#624AF6"/>
</svg>
