<svg width="23" height="19" viewBox="0 0 23 19" fill="none" xmlns="http://www.w3.org/2000/svg">
<path d="M1.83682 3.49952C3.66882 1.35252 8.87732 6.90952 11.3368 9.99952C13.7968 6.90952 19.0053 1.35252 20.8368 3.49952C21.1763 3.82452 21.5583 4.93802 20.3368 6.49952C19.9978 6.98752 19.4298 8.35252 19.8368 10.4995C19.8368 11.069 19.2793 11.9755 16.8368 10.9995C18.0243 11.813 20.2618 14.0475 18.8368 15.9995C17.4798 17.7075 14.3193 19.728 12.3368 14.9995L11.3368 12.9995L10.3368 14.9995C8.35482 19.728 5.19382 17.7075 3.83682 15.9995C2.41182 14.0475 4.64982 11.813 5.83682 10.9995C3.39432 11.9755 2.83682 11.069 2.83682 10.4995C3.24382 8.35252 2.67632 6.98752 2.33682 6.49952C1.11582 4.93802 1.49782 3.82452 1.83682 3.49952Z" fill="white"/>
<path fill-rule="evenodd" clip-rule="evenodd" d="M12.6226 6.94173L12.6138 6.97271C13.5692 5.93345 14.6364 4.87477 15.6884 4.01248C16.6361 3.2356 17.647 2.55435 18.6029 2.22852C19.5616 1.90175 20.7296 1.8673 21.5672 2.81597C22.3629 3.62572 22.521 5.31077 21.1458 7.08816C20.9602 7.37066 20.4664 8.45282 20.8191 10.3135C20.8308 10.3749 20.8366 10.4372 20.8366 10.4997C20.8366 11.1042 20.5244 11.9018 19.6202 12.2592C19.5846 12.2733 19.5485 12.2865 19.5119 12.2988C19.57 12.3868 19.6259 12.4763 19.6792 12.5674C20.3174 13.657 20.6833 15.1661 19.6443 16.5893C19.6363 16.6003 19.628 16.6111 19.6196 16.6218C18.874 17.5602 17.5263 18.7389 15.9262 18.9079C15.0802 18.9972 14.2024 18.7967 13.3964 18.19C12.619 17.6048 11.9631 16.6845 11.4276 15.4178L11.3366 15.2358L11.2456 15.4178C10.7103 16.6844 10.0544 17.6048 9.27707 18.1899C8.47104 18.7967 7.59324 18.9972 6.7472 18.9079C5.14714 18.7389 3.79929 17.5603 3.05365 16.6218C3.0452 16.6111 3.03696 16.6003 3.02894 16.5893C1.98986 15.166 2.35602 13.6569 2.99427 12.5673C3.04759 12.4763 3.10346 12.3868 3.16146 12.2989C3.12483 12.2866 3.08868 12.2733 3.05301 12.2592C2.14886 11.9018 1.83662 11.1042 1.83662 10.4997C1.83662 10.4372 1.84248 10.3749 1.85412 10.3135C2.20703 8.45181 1.71299 7.36991 1.52763 7.08841C0.152355 5.31043 0.311197 3.62563 1.10582 2.81617C1.94357 1.86733 3.11173 1.9017 4.07061 2.22852C5.02659 2.55434 6.03752 3.23559 6.98526 4.01248C8.03739 4.87493 9.10475 5.93385 10.0603 6.97331C10.0573 6.96281 10.0543 6.95228 10.0513 6.94173C9.82292 6.14363 9.47376 5.28935 9.05651 4.50809C8.63642 3.72149 8.16823 3.04809 7.71864 2.58696C7.23277 2.08861 6.92938 2 6.83691 2C6.28463 2 5.83691 1.55228 5.83691 1C5.83691 0.447715 6.28463 0 6.83691 0C7.7662 0 8.56531 0.590389 9.15067 1.19079C9.77232 1.82841 10.3441 2.67351 10.8207 3.56591C11.005 3.91105 11.1782 4.26912 11.3369 4.63273C11.4957 4.26912 11.6689 3.91105 11.8532 3.56591C12.3298 2.67351 12.9016 1.82841 13.5232 1.19079C14.1086 0.590389 14.9077 0 15.837 0C16.3893 0 16.837 0.447715 16.837 1C16.837 1.55228 16.3893 2 15.837 2C15.7445 2 15.4411 2.08861 14.9553 2.58696C14.5057 3.04809 14.0375 3.72149 13.6174 4.50809C13.2001 5.28935 12.851 6.14363 12.6226 6.94173ZM3.4254 4.12158C2.82704 3.91765 2.67363 4.05939 2.59733 4.14882C2.577 4.17264 2.55558 4.19548 2.53311 4.21729L2.53876 4.21184C2.54995 4.201 2.55519 4.19593 2.5564 4.19676C2.55746 4.19748 2.55541 4.20276 2.55157 4.21267C2.5143 4.30871 2.30817 4.83991 3.12438 5.88374C3.13584 5.89839 3.14689 5.91336 3.15751 5.92863C3.64265 6.62598 4.2265 8.17265 3.86588 10.419C4.04722 10.4493 4.51713 10.4501 5.46556 10.0711C5.93884 9.88199 6.47864 10.0791 6.71872 10.5287C6.95881 10.9783 6.82235 11.5365 6.40194 11.8246C5.88666 12.1777 5.15267 12.8396 4.71997 13.5782C4.3028 14.2904 4.25919 14.8701 4.63321 15.3947C5.24443 16.1573 6.14814 16.8335 6.95729 16.9189C7.31888 16.9571 7.68776 16.883 8.07426 16.592C8.48304 16.2843 8.96111 15.6945 9.41436 14.6131C9.42296 14.5926 9.43224 14.5724 9.44219 14.5525L10.4422 12.5525C10.6116 12.2137 10.9578 11.9997 11.3366 11.9997C11.7154 11.9997 12.0617 12.2137 12.231 12.5525L13.231 14.5525C13.241 14.5724 13.2503 14.5926 13.2588 14.6131C13.7122 15.6944 14.1904 16.2843 14.5992 16.592C14.9857 16.883 15.3546 16.9571 15.7161 16.9189C16.5252 16.8335 17.4288 16.1573 18.04 15.3947C18.4141 14.8701 18.3705 14.2903 17.9534 13.5782C17.5208 12.8396 16.7869 12.1778 16.2715 11.8247C15.851 11.5366 15.7144 10.9784 15.9545 10.5288C16.1945 10.0791 16.7344 9.88198 17.2077 10.0711C18.1561 10.4501 18.626 10.4493 18.8074 10.419C18.4467 8.17229 19.0313 6.62599 19.5153 5.9292C19.5261 5.91368 19.5373 5.89847 19.549 5.88358C20.3654 4.83988 20.1593 4.30908 20.1221 4.21309C20.1182 4.20318 20.1162 4.1979 20.1172 4.19717C20.1184 4.19635 20.1237 4.20141 20.1349 4.21223L20.1349 4.21224L20.1405 4.21768C20.1179 4.19573 20.0963 4.17271 20.0758 4.14872C19.9997 4.05943 19.8465 3.91764 19.2481 4.12158C18.6355 4.33041 17.8471 4.82897 16.9563 5.55922C15.196 7.00218 13.3293 9.10229 12.119 10.6226C11.9292 10.8609 11.6412 10.9997 11.3366 10.9997C11.0319 10.9997 10.7439 10.8608 10.5542 10.6225C9.34418 9.10226 7.47763 7.00217 5.71735 5.55922C4.82653 4.82898 4.03812 4.33042 3.4254 4.12158Z" fill="white"/>
</svg>
