<svg width="16" height="11" viewBox="0 0 16 11" fill="none" xmlns="http://www.w3.org/2000/svg">
<path d="M6.10965 8.53961L14.3278 0.321427C14.5218 0.127487 14.748 0.0305176 15.0066 0.0305176C15.2652 0.0305176 15.4915 0.127487 15.6854 0.321427C15.8793 0.515366 15.9763 0.745831 15.9763 1.01282C15.9763 1.27981 15.8793 1.50995 15.6854 1.70325L6.78844 10.6245C6.5945 10.8184 6.36824 10.9154 6.10965 10.9154C5.85107 10.9154 5.6248 10.8184 5.43086 10.6245L1.26117 6.45476C1.06723 6.26082 0.974135 6.03068 0.981893 5.76434C0.98965 5.49799 1.09082 5.26753 1.28541 5.07294C1.47999 4.87836 1.71046 4.78139 1.9768 4.78203C2.24315 4.78268 2.47329 4.87965 2.66723 5.07294L6.10965 8.53961Z" fill="white"/>
</svg>
