<svg width="16" height="17" viewBox="0 0 16 17" fill="none" xmlns="http://www.w3.org/2000/svg">
<path d="M7.8865 6.5L9.99984 8.60667V8.5C9.99984 7.96957 9.78912 7.46086 9.41405 7.08579C9.03898 6.71071 8.53027 6.5 7.99984 6.5H7.8865ZM5.01984 7.03333L6.05317 8.06667C6.01984 8.20667 5.99984 8.34667 5.99984 8.5C5.99984 9.03043 6.21055 9.53914 6.58562 9.91421C6.9607 10.2893 7.4694 10.5 7.99984 10.5C8.1465 10.5 8.29317 10.48 8.43317 10.4467L9.4665 11.48C9.01984 11.7 8.5265 11.8333 7.99984 11.8333C7.11578 11.8333 6.26794 11.4821 5.64281 10.857C5.01769 10.2319 4.6665 9.38406 4.6665 8.5C4.6665 7.97333 4.79984 7.48 5.01984 7.03333ZM1.33317 3.34667L2.85317 4.86667L3.15317 5.16667C2.05317 6.03333 1.1865 7.16667 0.666504 8.5C1.81984 11.4267 4.6665 13.5 7.99984 13.5C9.03317 13.5 10.0198 13.3 10.9198 12.94L11.2065 13.22L13.1532 15.1667L13.9998 14.32L2.17984 2.5M7.99984 5.16667C8.88389 5.16667 9.73174 5.51786 10.3569 6.14298C10.982 6.7681 11.3332 7.61595 11.3332 8.5C11.3332 8.92667 11.2465 9.34 11.0932 9.71333L13.0465 11.6667C14.0465 10.8333 14.8465 9.74 15.3332 8.5C14.1798 5.57333 11.3332 3.5 7.99984 3.5C7.0665 3.5 6.17317 3.66667 5.33317 3.96667L6.77984 5.4C7.15984 5.25333 7.5665 5.16667 7.99984 5.16667Z" fill="#979799"/>
</svg>
