<svg width="18" height="18" viewBox="0 0 18 18" fill="none" xmlns="http://www.w3.org/2000/svg">
<path d="M16.2984 1.70152C15.9292 1.33238 15.4285 1.125 14.9064 1.125C14.3844 1.125 13.8836 1.33238 13.5144 1.70152L12.6467 2.56927L15.4307 5.35327L16.2984 4.48552C16.6676 4.11631 16.875 3.61561 16.875 3.09352C16.875 2.57143 16.6676 2.07072 16.2984 1.70152ZM14.6349 6.14902L11.8509 3.36502L5.55094 9.66502C5.08808 10.1276 4.74782 10.6983 4.56094 11.3255L3.96094 13.3393C3.93197 13.4364 3.92981 13.5396 3.95469 13.6379C3.97956 13.7363 4.03055 13.826 4.10225 13.8977C4.17395 13.9694 4.26371 14.0204 4.36201 14.0453C4.46031 14.0701 4.56351 14.068 4.66069 14.039L6.67444 13.439C7.30161 13.2521 7.87231 12.9119 8.33494 12.449L14.6349 6.14902Z" fill="white"/>
<path d="M3.9375 3.9375C3.34076 3.9375 2.76847 4.17455 2.34651 4.59651C1.92455 5.01847 1.6875 5.59076 1.6875 6.1875V14.0625C1.6875 14.6592 1.92455 15.2315 2.34651 15.6535C2.76847 16.0754 3.34076 16.3125 3.9375 16.3125H11.8125C12.4092 16.3125 12.9815 16.0754 13.4035 15.6535C13.8254 15.2315 14.0625 14.6592 14.0625 14.0625V10.125C14.0625 9.97582 14.0032 9.83274 13.8977 9.72725C13.7923 9.62176 13.6492 9.5625 13.5 9.5625C13.3508 9.5625 13.2077 9.62176 13.1023 9.72725C12.9968 9.83274 12.9375 9.97582 12.9375 10.125V14.0625C12.9375 14.3609 12.819 14.647 12.608 14.858C12.397 15.069 12.1109 15.1875 11.8125 15.1875H3.9375C3.63913 15.1875 3.35298 15.069 3.142 14.858C2.93103 14.647 2.8125 14.3609 2.8125 14.0625V6.1875C2.8125 5.88913 2.93103 5.60298 3.142 5.392C3.35298 5.18103 3.63913 5.0625 3.9375 5.0625H7.875C8.02418 5.0625 8.16726 5.00324 8.27275 4.89775C8.37824 4.79226 8.4375 4.64918 8.4375 4.5C8.4375 4.35082 8.37824 4.20774 8.27275 4.10225C8.16726 3.99676 8.02418 3.9375 7.875 3.9375H3.9375Z" fill="white"/>
</svg>
