<svg width="14" height="14" viewBox="0 0 14 14" fill="none" xmlns="http://www.w3.org/2000/svg">
<path d="M0.8125 0.25V13.75H1.9375V9.25H13.1875V0.25H0.8125ZM1.9375 1.375H3.625V3.0625H5.3125V1.375H7V3.0625H8.6875V1.375H10.375V3.0625H12.0625V4.75H10.375V6.4375H12.0625V8.125H10.375V6.4375H8.6875V8.125H7V6.4375H5.3125V8.125H3.625V6.4375H1.9375V4.75H3.625V3.0625H1.9375V1.375ZM3.625 4.75V6.4375H5.3125V4.75H3.625ZM5.3125 4.75H7V3.0625H5.3125V4.75ZM7 4.75V6.4375H8.6875V4.75H7ZM8.6875 4.75H10.375V3.0625H8.6875V4.75Z" fill="url(#paint0_linear_1187_5110)"/>
<defs>
<linearGradient id="paint0_linear_1187_5110" x1="7" y1="0.25" x2="7" y2="13.75" gradientUnits="userSpaceOnUse">
<stop stop-color="#C0FC95"/>
<stop offset="1" stop-color="#91DC5C"/>
</linearGradient>
</defs>
</svg>
