<svg width="16" height="17" viewBox="0 0 16 17" fill="none" xmlns="http://www.w3.org/2000/svg">
<path d="M7.99984 6.5C7.4694 6.5 6.9607 6.71071 6.58562 7.08579C6.21055 7.46086 5.99984 7.96957 5.99984 8.5C5.99984 9.03043 6.21055 9.53914 6.58562 9.91421C6.9607 10.2893 7.4694 10.5 7.99984 10.5C8.53027 10.5 9.03898 10.2893 9.41405 9.91421C9.78912 9.53914 9.99984 9.03043 9.99984 8.5C9.99984 7.96957 9.78912 7.46086 9.41405 7.08579C9.03898 6.71071 8.53027 6.5 7.99984 6.5ZM7.99984 11.8333C7.11578 11.8333 6.26794 11.4821 5.64281 10.857C5.01769 10.2319 4.6665 9.38406 4.6665 8.5C4.6665 7.61595 5.01769 6.7681 5.64281 6.14298C6.26794 5.51786 7.11578 5.16667 7.99984 5.16667C8.88389 5.16667 9.73174 5.51786 10.3569 6.14298C10.982 6.7681 11.3332 7.61595 11.3332 8.5C11.3332 9.38406 10.982 10.2319 10.3569 10.857C9.73174 11.4821 8.88389 11.8333 7.99984 11.8333ZM7.99984 3.5C4.6665 3.5 1.81984 5.57333 0.666504 8.5C1.81984 11.4267 4.6665 13.5 7.99984 13.5C11.3332 13.5 14.1798 11.4267 15.3332 8.5C14.1798 5.57333 11.3332 3.5 7.99984 3.5Z" fill="black"/>
</svg>
