<svg width="28" height="24" viewBox="0 0 28 24" fill="none" xmlns="http://www.w3.org/2000/svg">
<path d="M13.9994 2.57143C8.31551 2.57143 3.62801 6.825 2.9423 12.3214C3.44587 12.1179 3.9923 12 4.57087 12C5.99051 12 7.1423 13.1518 7.1423 14.5714V21.4286C7.1423 22.8482 5.99051 24 4.57087 24C2.20301 24 0.285156 22.0821 0.285156 19.7143V18.8571V16.2857V13.7143C0.285156 6.13929 6.42444 0 13.9994 0C21.5744 0 27.7137 6.13929 27.7137 13.7143V16.2857V18.8571V19.7143C27.7137 22.0821 25.7959 24 23.428 24C22.0084 24 20.8566 22.8482 20.8566 21.4286V14.5714C20.8566 13.1518 22.0084 12 23.428 12C24.0066 12 24.553 12.1125 25.0566 12.3214C24.3709 6.825 19.6834 2.57143 13.9994 2.57143Z" fill="url(#paint0_linear_1943_2295)"/>
<defs>
<linearGradient id="paint0_linear_1943_2295" x1="13.9994" y1="0" x2="13.9994" y2="24" gradientUnits="userSpaceOnUse">
<stop stop-color="#C0FC95"/>
<stop offset="1" stop-color="#91DC5C"/>
</linearGradient>
</defs>
</svg>
