<svg width="28" height="24" viewBox="0 0 28 24" fill="none" xmlns="http://www.w3.org/2000/svg">
<path d="M14.0004 2.57143C8.31649 2.57143 3.62899 6.825 2.94328 12.3214C3.44685 12.1179 3.99328 12 4.57185 12C5.99149 12 7.14327 13.1518 7.14327 14.5714V21.4286C7.14327 22.8482 5.99149 24 4.57185 24C2.20399 24 0.286133 22.0821 0.286133 19.7143V18.8571V16.2857V13.7143C0.286133 6.13929 6.42542 0 14.0004 0C21.5754 0 27.7147 6.13929 27.7147 13.7143V16.2857V18.8571V19.7143C27.7147 22.0821 25.7968 24 23.429 24C22.0093 24 20.8576 22.8482 20.8576 21.4286V14.5714C20.8576 13.1518 22.0093 12 23.429 12C24.0076 12 24.554 12.1125 25.0576 12.3214C24.3718 6.825 19.6843 2.57143 14.0004 2.57143Z" fill="white"/>
</svg>
