<svg width="24" height="24" viewBox="0 0 24 24" fill="none" xmlns="http://www.w3.org/2000/svg">
<path d="M11.2 0.024635C4.82667 0.416224 0 5.70899 0 11.7597V20.2104C0 22.3073 1.78667 24 4 24H5.33333C6.8 24 8 22.8631 8 21.4736V16.4209C8 15.0313 6.8 13.8945 5.33333 13.8945H2.66667V11.7344C2.66667 6.88376 6.61333 2.6647 11.72 2.52575C12.969 2.49024 14.2129 2.6927 15.3778 3.12114C16.5426 3.54958 17.6049 4.19527 18.5014 5.01993C19.398 5.84458 20.1106 6.83139 20.5971 7.92186C21.0835 9.01233 21.3339 10.1842 21.3333 11.3681V13.8945H18.6667C17.2 13.8945 16 15.0313 16 16.4209V21.4736C16 22.8631 17.2 24 18.6667 24H20C22.2133 24 24 22.3073 24 20.2104V11.3681C24 4.83739 18.1867 -0.40485 11.2 0.024635Z" fill="black"/>
</svg>
