<svg width="28" height="24" viewBox="0 0 28 24" fill="none" xmlns="http://www.w3.org/2000/svg">
<path d="M27.4926 11.9766C27.4926 12.8203 26.7895 13.4813 25.9926 13.4813H24.4926L24.5254 20.9906C24.5254 21.1172 24.516 21.2437 24.502 21.3703V22.125C24.502 23.1609 23.6629 24 22.627 24H21.877C21.8254 24 21.7738 24 21.7223 23.9953C21.6566 24 21.591 24 21.5254 24H20.002H18.877C17.841 24 17.002 23.1609 17.002 22.125V21V18C17.002 17.1703 16.3316 16.5 15.502 16.5H12.502C11.6723 16.5 11.002 17.1703 11.002 18V21V22.125C11.002 23.1609 10.1629 24 9.12695 24H8.00195H6.50664C6.43633 24 6.36602 23.9953 6.2957 23.9906C6.23945 23.9953 6.1832 24 6.12695 24H5.37695C4.34102 24 3.50195 23.1609 3.50195 22.125V16.875C3.50195 16.8328 3.50195 16.7859 3.50664 16.7438V13.4813H2.00195C1.1582 13.4813 0.501953 12.825 0.501953 11.9766C0.501953 11.5547 0.642578 11.1797 0.970703 10.8516L12.9895 0.375C13.3176 0.046875 13.6926 0 14.0207 0C14.3488 0 14.7238 0.09375 15.0051 0.328125L26.977 10.8516C27.352 11.1797 27.5395 11.5547 27.4926 11.9766Z" fill="url(#paint0_linear_1695_2293)"/>
<defs>
<linearGradient id="paint0_linear_1695_2293" x1="14.0008" y1="0" x2="14.0008" y2="24" gradientUnits="userSpaceOnUse">
<stop stop-color="#C0FC95"/>
<stop offset="1" stop-color="#91DC5C"/>
</linearGradient>
</defs>
</svg>
