<svg width="24" height="27" viewBox="0 0 24 27" fill="none" xmlns="http://www.w3.org/2000/svg">
<path d="M18.5455 27C17.9607 27 17.4509 26.7758 17.016 26.3273C16.5811 25.8787 16.3636 25.353 16.3636 24.75V2.25C16.3636 1.647 16.5811 1.12125 17.016 0.67275C17.4509 0.22425 17.9607 0 18.5455 0H21.8182C22.4029 0 22.9127 0.22425 23.3476 0.67275C23.7825 1.12125 24 1.647 24 2.25V24.75C24 25.353 23.7825 25.8787 23.3476 26.3273C22.9127 26.7758 22.4029 27 21.8182 27H18.5455ZM2.18182 27C1.59709 27 1.08727 26.7758 0.652363 26.3273C0.217454 25.8787 0 25.353 0 24.75V2.25C0 1.647 0.217454 1.12125 0.652363 0.67275C1.08727 0.22425 1.59709 0 2.18182 0H5.45455C6.03927 0 6.54909 0.22425 6.984 0.67275C7.41891 1.12125 7.63636 1.647 7.63636 2.25V24.75C7.63636 25.353 7.41891 25.8787 6.984 26.3273C6.54909 26.7758 6.03927 27 5.45455 27H2.18182Z" fill="#FAF9F7"/>
</svg>
