<svg width="32" height="32" viewBox="0 0 32 32" fill="none" xmlns="http://www.w3.org/2000/svg">
<path d="M16 14.6665C17.1046 14.6665 18 13.7711 18 12.6665C18 11.5619 17.1046 10.6665 16 10.6665C14.8954 10.6665 14 11.5619 14 12.6665C14 13.7711 14.8954 14.6665 16 14.6665Z" fill="#FAF9F7"/>
<path d="M16.0002 2.6665C13.1896 2.66636 10.4925 3.77552 8.49515 5.75289C6.4978 7.73027 5.3616 10.4161 5.3335 13.2265C5.3335 20.5332 14.7335 28.6665 15.1335 29.0132C15.375 29.2197 15.6824 29.3333 16.0002 29.3333C16.318 29.3333 16.6253 29.2197 16.8668 29.0132C17.3335 28.6665 26.6668 20.5332 26.6668 13.2265C26.6387 10.4161 25.5025 7.73027 23.5052 5.75289C21.5078 3.77552 18.8108 2.66636 16.0002 2.6665ZM16.0002 17.3332C15.0772 17.3332 14.1749 17.0595 13.4075 16.5467C12.6401 16.0339 12.0419 15.3051 11.6887 14.4524C11.3355 13.5996 11.2431 12.6613 11.4232 11.7561C11.6032 10.8508 12.0477 10.0193 12.7003 9.36667C13.353 8.71403 14.1845 8.26957 15.0897 8.08951C15.995 7.90944 16.9333 8.00186 17.786 8.35507C18.6387 8.70828 19.3676 9.30641 19.8804 10.0738C20.3931 10.8413 20.6668 11.7435 20.6668 12.6665C20.6668 13.9042 20.1752 15.0912 19.3 15.9663C18.4248 16.8415 17.2378 17.3332 16.0002 17.3332Z" fill="#FAF9F7"/>
</svg>
