<svg width="61" height="61" viewBox="0 0 61 61" fill="none" xmlns="http://www.w3.org/2000/svg">
<path fill-rule="evenodd" clip-rule="evenodd" d="M24.207 12.5507L49.8575 28.3345C50.2276 28.5619 50.5332 28.8803 50.7452 29.2594C50.9572 29.6385 51.0685 30.0656 51.0685 30.5C51.0685 30.9343 50.9572 31.3614 50.7452 31.7405C50.5332 32.1196 50.2276 32.4381 49.8575 32.6655L24.207 48.4492C23.8218 48.6862 23.3804 48.8161 22.9282 48.8255C22.4761 48.835 22.0296 48.7236 21.6349 48.5029C21.2402 48.2823 20.9114 47.9603 20.6827 47.5701C20.4539 47.18 20.3334 46.7359 20.3335 46.2837V14.7162C20.3334 14.264 20.4539 13.8199 20.6827 13.4298C20.9114 13.0397 21.2402 12.7177 21.6349 12.497C22.0296 12.2763 22.4761 12.1649 22.9282 12.1744C23.3804 12.1838 23.8218 12.3137 24.207 12.5507Z" fill="#FAF9F7"/>
</svg>
