<svg width="14" height="14" viewBox="0 0 14 14" fill="none" xmlns="http://www.w3.org/2000/svg">
<path d="M6.13089 7.7451L0.867399 7.7451C0.670465 7.7451 0.49591 7.66969 0.343735 7.51887C0.191559 7.36805 0.115471 7.19505 0.115472 6.99987C0.115472 6.80469 0.191559 6.63169 0.343735 6.48087C0.495911 6.33005 0.670465 6.25463 0.867398 6.25463L6.13089 6.25463L6.13089 1.038C6.13089 0.842823 6.20697 0.669823 6.35915 0.519002C6.51132 0.368181 6.68588 0.29277 6.88281 0.29277C7.07975 0.29277 7.2543 0.368181 7.40648 0.519002C7.55865 0.669823 7.63474 0.842823 7.63474 1.038L7.63474 6.25463L12.8982 6.25463C13.0952 6.25463 13.2697 6.33005 13.4219 6.48087C13.5741 6.63169 13.6502 6.80469 13.6502 6.99987C13.6502 7.19505 13.5741 7.36805 13.4219 7.51887C13.2697 7.66969 13.0952 7.7451 12.8982 7.7451L7.63474 7.7451L7.63474 12.9617C7.63474 13.1569 7.55865 13.3299 7.40648 13.4807C7.2543 13.6316 7.07975 13.707 6.88281 13.707C6.68588 13.707 6.51133 13.6316 6.35915 13.4807C6.20697 13.3299 6.13089 13.1569 6.13089 12.9617L6.13089 7.7451Z" fill="white"/>
</svg>
