<svg width="10" height="9" viewBox="0 0 10 9" fill="none" xmlns="http://www.w3.org/2000/svg">
<path d="M3.56939 0.290617C3.55194 0.199824 3.49872 0.119165 3.42099 0.0656932C3.34326 0.0122217 3.24711 -0.00987042 3.15287 0.00408795C3.06866 0.0165804 2.9921 0.0585698 2.93772 0.122097C2.88333 0.185623 2.8549 0.266271 2.85781 0.348754C1.99119 0.554999 1.44036 0.971643 1.11457 1.4838C0.788787 1.99595 0.713056 2.56555 0.713056 3.0258V3.2445L0.202946 3.92899C0.119271 4.0412 0.0596074 4.16849 0.0274643 4.30337C-0.00467881 4.43825 -0.00865206 4.57799 0.0157784 4.71438C0.0402089 4.85077 0.0925497 4.98105 0.169722 5.09755C0.246893 5.21406 0.347338 5.31443 0.465146 5.39278L4.70178 8.21031C5.47564 8.72489 6.39229 9.00021 7.33092 9H8.40186C8.63267 8.99989 8.86072 8.95138 9.07034 8.85779C9.27996 8.7642 9.46618 8.62775 9.6162 8.45783C9.76622 8.28791 9.87648 8.08853 9.93942 7.87341C10.0023 7.65829 10.0165 7.43252 9.98078 7.21161C9.85646 6.45792 9.17846 5.93677 8.55904 5.67169C8.3297 5.57411 8.13609 5.43984 8.00892 5.25851L6.51074 2.76003C6.59991 2.74214 6.67828 2.69109 6.72904 2.61786C6.7798 2.54462 6.79889 2.45502 6.78223 2.3683C6.76477 2.27765 6.71166 2.1971 6.63409 2.14365C6.55652 2.09019 6.46055 2.06801 6.36642 2.08177C5.03042 2.28663 3.78729 1.45611 3.56939 0.290617ZM1.72327 1.84646C1.85045 1.64713 2.03406 1.45542 2.30769 1.29693L3.14358 2.69982C3.18088 2.76245 3.20427 2.83194 3.21223 2.90384C3.2202 2.97573 3.21257 3.04845 3.18983 3.11732C3.1671 3.18619 3.12976 3.24971 3.08021 3.30379C3.03066 3.35787 2.97 3.40132 2.9021 3.43137L1.94261 3.85632L1.42893 3.51303V3.0258C1.42893 2.62991 1.49537 2.20635 1.72327 1.84646ZM4.49959 5.56096L2.78636 4.41899L4.54674 3.52065C4.66924 3.45809 4.81199 3.4439 4.94504 3.48106C5.0781 3.51822 5.19115 3.60384 5.26047 3.71997L5.64555 4.3657C5.68166 4.42621 5.70478 4.49317 5.71352 4.56255C5.72227 4.63193 5.71646 4.7023 5.69644 4.76946C5.67643 4.83661 5.64262 4.89915 5.59704 4.95334C5.55147 5.00752 5.49507 5.05224 5.43122 5.08479L4.49959 5.56096ZM0.985973 4.0591L5.49123 7.06281C6.02731 7.4205 6.66284 7.61212 7.31377 7.61234H9.26991C9.23094 7.80794 9.12294 7.98431 8.96443 8.11121C8.80593 8.23812 8.60678 8.30766 8.40115 8.3079H7.32949C6.53551 8.30806 5.76011 8.07521 5.10544 7.64002L0.868804 4.82179C0.829554 4.79566 0.796094 4.76219 0.770392 4.72335C0.744691 4.6845 0.727268 4.64107 0.719146 4.59561C0.711025 4.55015 0.712371 4.50357 0.723103 4.45862C0.733836 4.41367 0.753739 4.37125 0.781643 4.33386L0.985973 4.0591Z" fill="#FAF9F7"/>
</svg>
