<svg width="27" height="28" viewBox="0 0 27 28" fill="none" xmlns="http://www.w3.org/2000/svg">
<g clip-path="url(#clip0_1467_2572)">
<path opacity="0.5" fill-rule="evenodd" clip-rule="evenodd" d="M16.1914 0.2128C15.6734 -6.25849e-08 15.0154 0 13.7008 0C12.3862 0 11.7296 -6.25849e-08 11.2102 0.2128C10.8685 0.352444 10.5577 0.558294 10.2958 0.818505C10.0339 1.07872 9.82607 1.38815 9.68423 1.729C9.55263 2.0412 9.50223 2.4066 9.48123 2.9372C9.47124 3.3215 9.36373 3.69696 9.16879 4.0283C8.97386 4.35964 8.69789 4.63599 8.36683 4.8314C8.02907 5.01914 7.64939 5.1186 7.26297 5.12056C6.87654 5.12252 6.49587 5.02691 6.15623 4.8426C5.68303 4.5934 5.34003 4.4562 5.00123 4.4114C4.26005 4.31469 3.5106 4.51387 2.91523 4.9658C2.47003 5.3046 2.14103 5.8702 1.48443 7C0.826432 8.1298 0.498832 8.694 0.424632 9.247C0.326632 9.9834 0.528232 10.7282 0.984632 11.3176C1.19183 11.5864 1.48443 11.8118 1.93663 12.0946C2.60443 12.5104 3.03283 13.2188 3.03283 14C3.03283 14.7812 2.60443 15.4896 1.93803 15.904C1.48443 16.1882 1.19183 16.4136 0.983232 16.6824C0.758625 16.9739 0.593681 17.3068 0.497832 17.6621C0.401983 18.0174 0.377109 18.3881 0.424632 18.753C0.498832 19.3046 0.826432 19.8702 1.48443 21C2.14243 22.1298 2.47003 22.694 2.91523 23.0342C3.50883 23.4864 4.25923 23.6852 5.00123 23.5886C5.34003 23.5438 5.68303 23.4066 6.15623 23.1574C6.49605 22.9728 6.87697 22.8771 7.26367 22.8791C7.65037 22.881 8.0303 22.9806 8.36823 23.1686C9.04863 23.5606 9.45183 24.2816 9.48123 25.0628C9.50223 25.5948 9.55263 25.9588 9.68423 26.271C9.96983 26.957 10.5186 27.503 11.2102 27.7872C11.7282 28 12.3862 28 13.7008 28C15.0154 28 15.6734 28 16.1914 27.7872C16.5332 27.6476 16.844 27.4417 17.1058 27.1815C17.3677 26.9213 17.5756 26.6118 17.7174 26.271C17.849 25.9588 17.8994 25.5948 17.9204 25.0628C17.9484 24.2816 18.353 23.5592 19.0348 23.1686C19.3726 22.9809 19.7523 22.8814 20.1387 22.8794C20.5251 22.8775 20.9058 22.9731 21.2454 23.1574C21.7186 23.4066 22.0616 23.5438 22.4004 23.5886C23.1424 23.6866 23.8928 23.4864 24.4864 23.0342C24.9316 22.6954 25.2606 22.1298 25.9172 21C26.5752 19.8702 26.9028 19.306 26.977 18.753C27.0244 18.388 26.9993 18.0172 26.9032 17.6619C26.8071 17.3067 26.6419 16.9738 26.417 16.6824C26.2098 16.4136 25.9172 16.1882 25.465 15.9054C24.7972 15.4896 24.3688 14.7812 24.3688 14C24.3688 13.2188 24.7972 12.5104 25.4636 12.096C25.9172 11.8118 26.2098 11.5864 26.4184 11.3176C26.643 11.0261 26.808 10.6932 26.9038 10.3379C26.9997 9.98261 27.0246 9.61191 26.977 9.247C26.9028 8.6954 26.5752 8.1298 25.9172 7C25.2592 5.8702 24.9316 5.306 24.4864 4.9658C23.8911 4.51387 23.1416 4.31469 22.4004 4.4114C22.0616 4.4562 21.7186 4.5934 21.2454 4.8426C20.9056 5.02716 20.5247 5.1229 20.138 5.12095C19.7513 5.11899 19.3714 5.01939 19.0334 4.8314C18.7026 4.63582 18.4269 4.35939 18.2323 4.02806C18.0376 3.69673 17.9303 3.32137 17.9204 2.9372C17.8994 2.4052 17.849 2.0412 17.7174 1.729C17.5756 1.38815 17.3677 1.07872 17.1058 0.818505C16.844 0.558294 16.5332 0.352444 16.1914 0.2128Z" fill="#C0FC95"/>
<path d="M19 14C19 16.7617 16.7605 19 14 19C11.2395 19 9 16.7617 9 14C9 11.2383 11.2378 9 14 9C16.7622 9 19 11.2383 19 14Z" fill="#C0FC95"/>
</g>
<defs>
<clipPath id="clip0_1467_2572">
<rect width="26.6004" height="28" fill="white" transform="translate(0.400391)"/>
</clipPath>
</defs>
</svg>
