<svg width="12" height="14" viewBox="0 0 12 14" fill="none" xmlns="http://www.w3.org/2000/svg">
<path fill-rule="evenodd" clip-rule="evenodd" d="M5.50833 13.7557C5.50833 13.7557 0.666992 9.67834 0.666992 5.66634C0.666992 4.25185 1.2289 2.8953 2.22909 1.89511C3.22928 0.894911 4.58584 0.333008 6.00033 0.333008C7.41481 0.333008 8.77137 0.894911 9.77156 1.89511C10.7718 2.8953 11.3337 4.25185 11.3337 5.66634C11.3337 9.67834 6.49233 13.7557 6.49233 13.7557C6.22299 14.0037 5.77966 14.001 5.50833 13.7557ZM6.00033 7.99967C6.30674 7.99967 6.61016 7.93932 6.89325 7.82206C7.17635 7.7048 7.43357 7.53293 7.65024 7.31626C7.86691 7.09959 8.03878 6.84236 8.15604 6.55927C8.27331 6.27618 8.33366 5.97276 8.33366 5.66634C8.33366 5.35992 8.27331 5.05651 8.15604 4.77341C8.03878 4.49032 7.86691 4.2331 7.65024 4.01643C7.43357 3.79976 7.17635 3.62788 6.89325 3.51062C6.61016 3.39336 6.30674 3.33301 6.00033 3.33301C5.38149 3.33301 4.78799 3.57884 4.35041 4.01643C3.91283 4.45401 3.66699 5.0475 3.66699 5.66634C3.66699 6.28518 3.91283 6.87867 4.35041 7.31626C4.78799 7.75384 5.38149 7.99967 6.00033 7.99967Z" fill="url(#paint0_linear_1187_5108)"/>
<defs>
<linearGradient id="paint0_linear_1187_5108" x1="6.00033" y1="0.333008" x2="6.00033" y2="13.9407" gradientUnits="userSpaceOnUse">
<stop stop-color="#C0FC95"/>
<stop offset="1" stop-color="#91DC5C"/>
</linearGradient>
</defs>
</svg>
