<svg width="24" height="24" viewBox="0 0 24 24" fill="none" xmlns="http://www.w3.org/2000/svg">
<path d="M7.2 12.3125C9.52125 12.3125 11.4 10.4533 11.4 8.15625C11.4 5.85918 9.52125 4 7.2 4C4.87875 4 3 5.85918 3 8.15625C3 10.4533 4.87875 12.3125 7.2 12.3125ZM10.08 13.5H9.76875C8.98875 13.8711 8.1225 14.0938 7.2 14.0938C6.2775 14.0938 5.415 13.8711 4.63125 13.5H4.32C1.935 13.5 0 15.4148 0 17.775V18.8438C0 19.8271 0.80625 20.625 1.8 20.625H12.6C13.5938 20.625 14.4 19.8271 14.4 18.8438V17.775C14.4 15.4148 12.465 13.5 10.08 13.5ZM18 12.3125C19.9875 12.3125 21.6 10.7168 21.6 8.75C21.6 6.7832 19.9875 5.1875 18 5.1875C16.0125 5.1875 14.4 6.7832 14.4 8.75C14.4 10.7168 16.0125 12.3125 18 12.3125ZM19.8 13.5H19.6575C19.1363 13.6781 18.585 13.7969 18 13.7969C17.415 13.7969 16.8638 13.6781 16.3425 13.5H16.2C15.435 13.5 14.73 13.7189 14.1113 14.0715C15.0263 15.0475 15.6 16.3426 15.6 17.775V19.2C15.6 19.2816 15.5813 19.3596 15.5775 19.4375H22.2C23.1938 19.4375 24 18.6396 24 17.6562C24 15.3592 22.1213 13.5 19.8 13.5Z" fill="black"/>
</svg>
