<svg width="32" height="32" viewBox="0 0 32 32" fill="none" xmlns="http://www.w3.org/2000/svg">
<path d="M13.3333 17.3332C16.2789 17.3332 18.6667 14.9454 18.6667 11.9998C18.6667 9.05432 16.2789 6.6665 13.3333 6.6665C10.3878 6.6665 8 9.05432 8 11.9998C8 14.9454 10.3878 17.3332 13.3333 17.3332Z" fill="#FAF9F7"/>
<path d="M21.8533 20.7468C19.6133 19.6001 16.7066 18.6668 13.3333 18.6668C9.95992 18.6668 7.05326 19.6001 4.81326 20.7468C4.16267 21.0819 3.61766 21.5907 3.23872 22.2168C2.85979 22.8429 2.66175 23.5617 2.66659 24.2935V25.3335C2.66659 26.8001 3.86659 28.0001 5.33326 28.0001H21.3333C22.7999 28.0001 23.9999 26.8001 23.9999 25.3335V24.2935C23.9999 22.8001 23.1866 21.4268 21.8533 20.7468ZM28.1466 2.46681C28.0306 2.31654 27.8838 2.19285 27.716 2.10407C27.5482 2.01528 27.3634 1.96346 27.1739 1.95209C26.9844 1.94072 26.7947 1.97007 26.6175 2.03815C26.4403 2.10624 26.2797 2.21148 26.1466 2.34681C25.6799 2.81348 25.6266 3.56014 26.0266 4.08014C27.5866 6.08014 29.5466 11.0535 26.0266 15.5601C25.6266 16.0801 25.6799 16.8268 26.1466 17.2935C26.7199 17.8668 27.6533 17.8001 28.1466 17.1735C30.1466 14.6001 32.6133 8.21348 28.1466 2.46681ZM24.4133 6.45348C24.3097 6.27657 24.1672 6.12562 23.9965 6.01214C23.8259 5.89865 23.6315 5.82563 23.4284 5.79862C23.2252 5.77162 23.0185 5.79135 22.8241 5.85631C22.6297 5.92127 22.4527 6.02975 22.3066 6.17348C21.8666 6.61348 21.8266 7.29348 22.1333 7.84014C22.4666 8.42681 23.1199 10.0935 22.1199 11.8268C21.8133 12.3601 21.8666 13.0268 22.3066 13.4535C22.9333 14.0801 23.9733 13.9201 24.4133 13.1601C25.9599 10.5068 25.1866 7.80014 24.4133 6.45348Z" fill="#FAF9F7"/>
</svg>
