<svg width="14" height="14" viewBox="0 0 14 14" fill="none" xmlns="http://www.w3.org/2000/svg">
<path d="M6.99967 8.41944L2.03136 13.3877C1.84547 13.5736 1.60888 13.6666 1.3216 13.6666C1.03432 13.6666 0.797731 13.5736 0.611841 13.3877C0.425952 13.2019 0.333008 12.9653 0.333008 12.678C0.333008 12.3907 0.425952 12.1541 0.611841 11.9682L5.58016 6.99992L0.611841 2.0316C0.425952 1.84571 0.333008 1.60913 0.333008 1.32184C0.333008 1.03456 0.425952 0.797975 0.611841 0.612086C0.797731 0.426196 1.03432 0.333252 1.3216 0.333252C1.60888 0.333252 1.84547 0.426196 2.03136 0.612086L6.99967 5.5804L11.968 0.612086C12.1539 0.426196 12.3905 0.333252 12.6777 0.333252C12.965 0.333252 13.2016 0.426196 13.3875 0.612086C13.5734 0.797975 13.6663 1.03456 13.6663 1.32184C13.6663 1.60913 13.5734 1.84571 13.3875 2.0316L8.41919 6.99992L13.3875 11.9682C13.5734 12.1541 13.6663 12.3907 13.6663 12.678C13.6663 12.9653 13.5734 13.2019 13.3875 13.3877C13.2016 13.5736 12.965 13.6666 12.6777 13.6666C12.3905 13.6666 12.1539 13.5736 11.968 13.3877L6.99967 8.41944Z" fill="#6E6E6E"/>
</svg>
